<svg width="1363" height="163" viewBox="0 0 1363 163" fill="none" xmlns="http://www.w3.org/2000/svg">
<path d="M0 15C0 6.71573 6.71573 0 15 0H37V163H15C6.71573 163 0 156.284 0 148V15Z" fill="#424242"/>
<rect width="1097" height="163" transform="translate(37)" fill="#F0F0F0"/>
<path d="M101.906 53.9219L94.3945 51.2383V48.0859L104.602 52.375V54.6367L101.906 53.9219ZM94.3945 56.1719L101.918 53.4297L104.602 52.7852V55.0352L94.3945 59.3242V56.1719ZM119.836 46.8555L115.195 61H111.457L117.797 43.9375H120.176L119.836 46.8555ZM123.691 61L119.039 46.8555L118.664 43.9375H121.066L127.441 61H123.691ZM123.48 54.6484V57.4023H114.469V54.6484H123.48ZM136.172 57.9648V48.3203H139.547V61H136.371L136.172 57.9648ZM136.547 55.3633L137.543 55.3398C137.543 56.1836 137.445 56.9688 137.25 57.6953C137.055 58.4141 136.762 59.0391 136.371 59.5703C135.98 60.0938 135.488 60.5039 134.895 60.8008C134.301 61.0898 133.602 61.2344 132.797 61.2344C132.18 61.2344 131.609 61.1484 131.086 60.9766C130.57 60.7969 130.125 60.5195 129.75 60.1445C129.383 59.7617 129.094 59.2734 128.883 58.6797C128.68 58.0781 128.578 57.3555 128.578 56.5117V48.3203H131.953V56.5352C131.953 56.9102 131.996 57.2266 132.082 57.4844C132.176 57.7422 132.305 57.9531 132.469 58.1172C132.633 58.2812 132.824 58.3984 133.043 58.4688C133.27 58.5391 133.52 58.5742 133.793 58.5742C134.488 58.5742 135.035 58.4336 135.434 58.1523C135.84 57.8711 136.125 57.4883 136.289 57.0039C136.461 56.5117 136.547 55.9648 136.547 55.3633ZM148.336 48.3203V50.7109H140.953V48.3203H148.336ZM142.781 45.1914H146.156V57.1797C146.156 57.5469 146.203 57.8281 146.297 58.0234C146.398 58.2188 146.547 58.3555 146.742 58.4336C146.938 58.5039 147.184 58.5391 147.48 58.5391C147.691 58.5391 147.879 58.5312 148.043 58.5156C148.215 58.4922 148.359 58.4688 148.477 58.4453L148.488 60.9297C148.199 61.0234 147.887 61.0977 147.551 61.1523C147.215 61.207 146.844 61.2344 146.438 61.2344C145.695 61.2344 145.047 61.1133 144.492 60.8711C143.945 60.6211 143.523 60.2227 143.227 59.6758C142.93 59.1289 142.781 58.4102 142.781 57.5195V45.1914ZM149.414 54.7891V54.543C149.414 53.6133 149.547 52.7578 149.812 51.9766C150.078 51.1875 150.465 50.5039 150.973 49.9258C151.48 49.3477 152.105 48.8984 152.848 48.5781C153.59 48.25 154.441 48.0859 155.402 48.0859C156.363 48.0859 157.219 48.25 157.969 48.5781C158.719 48.8984 159.348 49.3477 159.855 49.9258C160.371 50.5039 160.762 51.1875 161.027 51.9766C161.293 52.7578 161.426 53.6133 161.426 54.543V54.7891C161.426 55.7109 161.293 56.5664 161.027 57.3555C160.762 58.1367 160.371 58.8203 159.855 59.4062C159.348 59.9844 158.723 60.4336 157.98 60.7539C157.238 61.0742 156.387 61.2344 155.426 61.2344C154.465 61.2344 153.609 61.0742 152.859 60.7539C152.117 60.4336 151.488 59.9844 150.973 59.4062C150.465 58.8203 150.078 58.1367 149.812 57.3555C149.547 56.5664 149.414 55.7109 149.414 54.7891ZM152.789 54.543V54.7891C152.789 55.3203 152.836 55.8164 152.93 56.2773C153.023 56.7383 153.172 57.1445 153.375 57.4961C153.586 57.8398 153.859 58.1094 154.195 58.3047C154.531 58.5 154.941 58.5977 155.426 58.5977C155.895 58.5977 156.297 58.5 156.633 58.3047C156.969 58.1094 157.238 57.8398 157.441 57.4961C157.645 57.1445 157.793 56.7383 157.887 56.2773C157.988 55.8164 158.039 55.3203 158.039 54.7891V54.543C158.039 54.0273 157.988 53.543 157.887 53.0898C157.793 52.6289 157.641 52.2227 157.43 51.8711C157.227 51.5117 156.957 51.2305 156.621 51.0273C156.285 50.8242 155.879 50.7227 155.402 50.7227C154.926 50.7227 154.52 50.8242 154.184 51.0273C153.855 51.2305 153.586 51.5117 153.375 51.8711C153.172 52.2227 153.023 52.6289 152.93 53.0898C152.836 53.543 152.789 54.0273 152.789 54.543ZM172.594 56.5352C172.594 56.2305 172.547 55.957 172.453 55.7148C172.367 55.4648 172.203 55.2383 171.961 55.0352C171.719 54.8242 171.379 54.6172 170.941 54.4141C170.504 54.2109 169.938 54 169.242 53.7812C168.469 53.5312 167.734 53.25 167.039 52.9375C166.352 52.625 165.742 52.2617 165.211 51.8477C164.688 51.4258 164.273 50.9375 163.969 50.3828C163.672 49.8281 163.523 49.1836 163.523 48.4492C163.523 47.7383 163.68 47.0938 163.992 46.5156C164.305 45.9297 164.742 45.4297 165.305 45.0156C165.867 44.5938 166.531 44.2695 167.297 44.043C168.07 43.8164 168.918 43.7031 169.84 43.7031C171.098 43.7031 172.195 43.9297 173.133 44.3828C174.07 44.8359 174.797 45.457 175.312 46.2461C175.836 47.0352 176.098 47.9375 176.098 48.9531H172.605C172.605 48.4531 172.5 48.0156 172.289 47.6406C172.086 47.2578 171.773 46.957 171.352 46.7383C170.938 46.5195 170.414 46.4102 169.781 46.4102C169.172 46.4102 168.664 46.5039 168.258 46.6914C167.852 46.8711 167.547 47.1172 167.344 47.4297C167.141 47.7344 167.039 48.0781 167.039 48.4609C167.039 48.75 167.109 49.0117 167.25 49.2461C167.398 49.4805 167.617 49.6992 167.906 49.9023C168.195 50.1055 168.551 50.2969 168.973 50.4766C169.395 50.6562 169.883 50.832 170.438 51.0039C171.367 51.2852 172.184 51.6016 172.887 51.9531C173.598 52.3047 174.191 52.6992 174.668 53.1367C175.145 53.5742 175.504 54.0703 175.746 54.625C175.988 55.1797 176.109 55.8086 176.109 56.5117C176.109 57.2539 175.965 57.918 175.676 58.5039C175.387 59.0898 174.969 59.5859 174.422 59.9922C173.875 60.3984 173.223 60.707 172.465 60.918C171.707 61.1289 170.859 61.2344 169.922 61.2344C169.078 61.2344 168.246 61.125 167.426 60.9062C166.605 60.6797 165.859 60.3398 165.188 59.8867C164.523 59.4336 163.992 58.8555 163.594 58.1523C163.195 57.4492 162.996 56.6172 162.996 55.6562H166.523C166.523 56.1875 166.605 56.6367 166.77 57.0039C166.934 57.3711 167.164 57.668 167.461 57.8945C167.766 58.1211 168.125 58.2852 168.539 58.3867C168.961 58.4883 169.422 58.5391 169.922 58.5391C170.531 58.5391 171.031 58.4531 171.422 58.2812C171.82 58.1094 172.113 57.8711 172.301 57.5664C172.496 57.2617 172.594 56.918 172.594 56.5352ZM182.051 59.5703L185.414 48.3203H189.035L183.938 62.9102C183.828 63.2305 183.68 63.5742 183.492 63.9414C183.312 64.3086 183.066 64.6562 182.754 64.9844C182.449 65.3203 182.062 65.5938 181.594 65.8047C181.133 66.0156 180.566 66.1211 179.895 66.1211C179.574 66.1211 179.312 66.1016 179.109 66.0625C178.906 66.0234 178.664 65.9688 178.383 65.8984V63.4258C178.469 63.4258 178.559 63.4258 178.652 63.4258C178.746 63.4336 178.836 63.4375 178.922 63.4375C179.367 63.4375 179.73 63.3867 180.012 63.2852C180.293 63.1836 180.52 63.0273 180.691 62.8164C180.863 62.6133 181 62.3477 181.102 62.0195L182.051 59.5703ZM180.645 48.3203L183.398 57.5078L183.879 61.082L181.582 61.3281L177.023 48.3203H180.645ZM193.688 51.0273V61H190.312V48.3203H193.477L193.688 51.0273ZM193.195 54.2148H192.281C192.281 53.2773 192.402 52.4336 192.645 51.6836C192.887 50.9258 193.227 50.2812 193.664 49.75C194.102 49.2109 194.621 48.8008 195.223 48.5195C195.832 48.2305 196.512 48.0859 197.262 48.0859C197.855 48.0859 198.398 48.1719 198.891 48.3438C199.383 48.5156 199.805 48.7891 200.156 49.1641C200.516 49.5391 200.789 50.0352 200.977 50.6523C201.172 51.2695 201.27 52.0234 201.27 52.9141V61H197.871V52.9023C197.871 52.3398 197.793 51.9023 197.637 51.5898C197.48 51.2773 197.25 51.0586 196.945 50.9336C196.648 50.8008 196.281 50.7344 195.844 50.7344C195.391 50.7344 194.996 50.8242 194.66 51.0039C194.332 51.1836 194.059 51.4336 193.84 51.7539C193.629 52.0664 193.469 52.4336 193.359 52.8555C193.25 53.2773 193.195 53.7305 193.195 54.2148ZM209.074 58.5977C209.488 58.5977 209.855 58.5195 210.176 58.3633C210.496 58.1992 210.746 57.9727 210.926 57.6836C211.113 57.3867 211.211 57.0391 211.219 56.6406H214.395C214.387 57.5312 214.148 58.3242 213.68 59.0195C213.211 59.707 212.582 60.25 211.793 60.6484C211.004 61.0391 210.121 61.2344 209.145 61.2344C208.16 61.2344 207.301 61.0703 206.566 60.7422C205.84 60.4141 205.234 59.9609 204.75 59.3828C204.266 58.7969 203.902 58.1172 203.66 57.3438C203.418 56.5625 203.297 55.7266 203.297 54.8359V54.4961C203.297 53.5977 203.418 52.7617 203.66 51.9883C203.902 51.207 204.266 50.5273 204.75 49.9492C205.234 49.3633 205.84 48.9062 206.566 48.5781C207.293 48.25 208.145 48.0859 209.121 48.0859C210.16 48.0859 211.07 48.2852 211.852 48.6836C212.641 49.082 213.258 49.6523 213.703 50.3945C214.156 51.1289 214.387 52 214.395 53.0078H211.219C211.211 52.5859 211.121 52.2031 210.949 51.8594C210.785 51.5156 210.543 51.2422 210.223 51.0391C209.91 50.8281 209.523 50.7227 209.062 50.7227C208.57 50.7227 208.168 50.8281 207.855 51.0391C207.543 51.2422 207.301 51.5234 207.129 51.8828C206.957 52.2344 206.836 52.6367 206.766 53.0898C206.703 53.5352 206.672 54.0039 206.672 54.4961V54.8359C206.672 55.3281 206.703 55.8008 206.766 56.2539C206.828 56.707 206.945 57.1094 207.117 57.4609C207.297 57.8125 207.543 58.0898 207.855 58.293C208.168 58.4961 208.574 58.5977 209.074 58.5977Z" fill="#888888"/>
<path d="M104.344 84.875V119H96.1406V84.875H104.344ZM117.727 99.0078V119H109.828V93.6406H117.234L117.727 99.0078ZM116.766 105.453L114.961 105.5C114.961 103.719 115.172 102.078 115.594 100.578C116.016 99.0781 116.641 97.7734 117.469 96.6641C118.297 95.5547 119.312 94.6953 120.516 94.0859C121.734 93.4766 123.141 93.1719 124.734 93.1719C125.844 93.1719 126.852 93.3438 127.758 93.6875C128.664 94.0156 129.445 94.5391 130.102 95.2578C130.758 95.9609 131.258 96.8828 131.602 98.0234C131.961 99.1484 132.141 100.5 132.141 102.078V119H124.242V103.086C124.242 102.008 124.117 101.195 123.867 100.648C123.633 100.102 123.289 99.7344 122.836 99.5469C122.383 99.3594 121.828 99.2656 121.172 99.2656C120.484 99.2656 119.867 99.4219 119.32 99.7344C118.773 100.047 118.305 100.484 117.914 101.047C117.539 101.594 117.25 102.242 117.047 102.992C116.859 103.742 116.766 104.562 116.766 105.453ZM131.25 105.453L129.047 105.5C129.047 103.719 129.242 102.078 129.633 100.578C130.039 99.0781 130.641 97.7734 131.438 96.6641C132.25 95.5547 133.258 94.6953 134.461 94.0859C135.664 93.4766 137.062 93.1719 138.656 93.1719C139.812 93.1719 140.875 93.3438 141.844 93.6875C142.812 94.0312 143.648 94.5859 144.352 95.3516C145.055 96.1172 145.602 97.1328 145.992 98.3984C146.383 99.6484 146.578 101.195 146.578 103.039V119H138.656V103.039C138.656 101.992 138.531 101.203 138.281 100.672C138.047 100.125 137.703 99.7578 137.25 99.5703C136.797 99.3672 136.258 99.2656 135.633 99.2656C134.883 99.2656 134.234 99.4219 133.688 99.7344C133.141 100.047 132.68 100.484 132.305 101.047C131.945 101.594 131.68 102.242 131.508 102.992C131.336 103.742 131.25 104.562 131.25 105.453ZM159.07 98.5156V128.75H151.172V93.6406H158.531L159.07 98.5156ZM174.633 106.016V106.508C174.633 108.352 174.422 110.062 174 111.641C173.578 113.219 172.953 114.594 172.125 115.766C171.297 116.938 170.266 117.852 169.031 118.508C167.812 119.148 166.398 119.469 164.789 119.469C163.273 119.469 161.969 119.133 160.875 118.461C159.781 117.789 158.867 116.859 158.133 115.672C157.398 114.484 156.805 113.125 156.352 111.594C155.898 110.062 155.539 108.445 155.273 106.742V106.109C155.539 104.281 155.898 102.586 156.352 101.023C156.805 99.4453 157.398 98.0703 158.133 96.8984C158.867 95.7266 159.773 94.8125 160.852 94.1562C161.945 93.5 163.25 93.1719 164.766 93.1719C166.375 93.1719 167.789 93.4766 169.008 94.0859C170.242 94.6953 171.273 95.5703 172.102 96.7109C172.945 97.8359 173.578 99.1875 174 100.766C174.422 102.344 174.633 104.094 174.633 106.016ZM166.734 106.508V106.016C166.734 105.031 166.664 104.133 166.523 103.32C166.383 102.492 166.156 101.773 165.844 101.164C165.547 100.555 165.148 100.086 164.648 99.7578C164.148 99.4297 163.531 99.2656 162.797 99.2656C161.953 99.2656 161.242 99.3984 160.664 99.6641C160.102 99.9141 159.648 100.305 159.305 100.836C158.977 101.352 158.742 102 158.602 102.781C158.477 103.547 158.422 104.445 158.438 105.477V107.398C158.406 108.586 158.523 109.633 158.789 110.539C159.055 111.43 159.516 112.125 160.172 112.625C160.828 113.125 161.719 113.375 162.844 113.375C163.594 113.375 164.219 113.203 164.719 112.859C165.219 112.5 165.617 112.008 165.914 111.383C166.211 110.742 166.422 110.008 166.547 109.18C166.672 108.352 166.734 107.461 166.734 106.508ZM186.492 83V119H178.57V83H186.492ZM203.648 119.469C201.586 119.469 199.742 119.148 198.117 118.508C196.492 117.852 195.117 116.953 193.992 115.812C192.883 114.672 192.031 113.359 191.438 111.875C190.859 110.391 190.57 108.82 190.57 107.164V106.273C190.57 104.414 190.828 102.695 191.344 101.117C191.859 99.5234 192.625 98.1328 193.641 96.9453C194.656 95.7578 195.93 94.8359 197.461 94.1797C198.992 93.5078 200.773 93.1719 202.805 93.1719C204.602 93.1719 206.211 93.4609 207.633 94.0391C209.055 94.6172 210.258 95.4453 211.242 96.5234C212.242 97.6016 213 98.9062 213.516 100.438C214.047 101.969 214.312 103.688 214.312 105.594V108.805H193.594V103.859H206.602V103.25C206.617 102.406 206.469 101.688 206.156 101.094C205.859 100.5 205.422 100.047 204.844 99.7344C204.266 99.4219 203.562 99.2656 202.734 99.2656C201.875 99.2656 201.164 99.4531 200.602 99.8281C200.055 100.203 199.625 100.719 199.312 101.375C199.016 102.016 198.805 102.758 198.68 103.602C198.555 104.445 198.492 105.336 198.492 106.273V107.164C198.492 108.102 198.617 108.953 198.867 109.719C199.133 110.484 199.508 111.141 199.992 111.688C200.492 112.219 201.086 112.633 201.773 112.93C202.477 113.227 203.273 113.375 204.164 113.375C205.242 113.375 206.305 113.172 207.352 112.766C208.398 112.359 209.297 111.688 210.047 110.75L213.633 115.016C213.117 115.75 212.383 116.461 211.43 117.148C210.492 117.836 209.367 118.398 208.055 118.836C206.742 119.258 205.273 119.469 203.648 119.469ZM225.492 99.0078V119H217.594V93.6406H225L225.492 99.0078ZM224.531 105.453L222.727 105.5C222.727 103.719 222.938 102.078 223.359 100.578C223.781 99.0781 224.406 97.7734 225.234 96.6641C226.062 95.5547 227.078 94.6953 228.281 94.0859C229.5 93.4766 230.906 93.1719 232.5 93.1719C233.609 93.1719 234.617 93.3438 235.523 93.6875C236.43 94.0156 237.211 94.5391 237.867 95.2578C238.523 95.9609 239.023 96.8828 239.367 98.0234C239.727 99.1484 239.906 100.5 239.906 102.078V119H232.008V103.086C232.008 102.008 231.883 101.195 231.633 100.648C231.398 100.102 231.055 99.7344 230.602 99.5469C230.148 99.3594 229.594 99.2656 228.938 99.2656C228.25 99.2656 227.633 99.4219 227.086 99.7344C226.539 100.047 226.07 100.484 225.68 101.047C225.305 101.594 225.016 102.242 224.812 102.992C224.625 103.742 224.531 104.562 224.531 105.453ZM239.016 105.453L236.812 105.5C236.812 103.719 237.008 102.078 237.398 100.578C237.805 99.0781 238.406 97.7734 239.203 96.6641C240.016 95.5547 241.023 94.6953 242.227 94.0859C243.43 93.4766 244.828 93.1719 246.422 93.1719C247.578 93.1719 248.641 93.3438 249.609 93.6875C250.578 94.0312 251.414 94.5859 252.117 95.3516C252.82 96.1172 253.367 97.1328 253.758 98.3984C254.148 99.6484 254.344 101.195 254.344 103.039V119H246.422V103.039C246.422 101.992 246.297 101.203 246.047 100.672C245.812 100.125 245.469 99.7578 245.016 99.5703C244.562 99.3672 244.023 99.2656 243.398 99.2656C242.648 99.2656 242 99.4219 241.453 99.7344C240.906 100.047 240.445 100.484 240.07 101.047C239.711 101.594 239.445 102.242 239.273 102.992C239.102 103.742 239.016 104.562 239.016 105.453ZM271.148 119.469C269.086 119.469 267.242 119.148 265.617 118.508C263.992 117.852 262.617 116.953 261.492 115.812C260.383 114.672 259.531 113.359 258.938 111.875C258.359 110.391 258.07 108.82 258.07 107.164V106.273C258.07 104.414 258.328 102.695 258.844 101.117C259.359 99.5234 260.125 98.1328 261.141 96.9453C262.156 95.7578 263.43 94.8359 264.961 94.1797C266.492 93.5078 268.273 93.1719 270.305 93.1719C272.102 93.1719 273.711 93.4609 275.133 94.0391C276.555 94.6172 277.758 95.4453 278.742 96.5234C279.742 97.6016 280.5 98.9062 281.016 100.438C281.547 101.969 281.812 103.688 281.812 105.594V108.805H261.094V103.859H274.102V103.25C274.117 102.406 273.969 101.688 273.656 101.094C273.359 100.5 272.922 100.047 272.344 99.7344C271.766 99.4219 271.062 99.2656 270.234 99.2656C269.375 99.2656 268.664 99.4531 268.102 99.8281C267.555 100.203 267.125 100.719 266.812 101.375C266.516 102.016 266.305 102.758 266.18 103.602C266.055 104.445 265.992 105.336 265.992 106.273V107.164C265.992 108.102 266.117 108.953 266.367 109.719C266.633 110.484 267.008 111.141 267.492 111.688C267.992 112.219 268.586 112.633 269.273 112.93C269.977 113.227 270.773 113.375 271.664 113.375C272.742 113.375 273.805 113.172 274.852 112.766C275.898 112.359 276.797 111.688 277.547 110.75L281.133 115.016C280.617 115.75 279.883 116.461 278.93 117.148C277.992 117.836 276.867 118.398 275.555 118.836C274.242 119.258 272.773 119.469 271.148 119.469ZM292.781 99.0547V119H284.883V93.6406H292.289L292.781 99.0547ZM291.844 105.453L289.992 105.5C289.992 103.562 290.227 101.836 290.695 100.32C291.164 98.7891 291.828 97.4922 292.688 96.4297C293.547 95.3672 294.57 94.5625 295.758 94.0156C296.961 93.4531 298.297 93.1719 299.766 93.1719C300.938 93.1719 302.008 93.3438 302.977 93.6875C303.961 94.0312 304.805 94.5859 305.508 95.3516C306.227 96.1172 306.773 97.1328 307.148 98.3984C307.539 99.6484 307.734 101.195 307.734 103.039V119H299.789V103.016C299.789 102 299.648 101.227 299.367 100.695C299.086 100.148 298.68 99.7734 298.148 99.5703C297.617 99.3672 296.969 99.2656 296.203 99.2656C295.391 99.2656 294.703 99.4219 294.141 99.7344C293.578 100.047 293.125 100.484 292.781 101.047C292.453 101.594 292.211 102.242 292.055 102.992C291.914 103.742 291.844 104.562 291.844 105.453ZM325.477 93.6406V99.125H310.195V93.6406H325.477ZM313.406 87.3359H321.305V110.727C321.305 111.398 321.383 111.922 321.539 112.297C321.695 112.656 321.961 112.914 322.336 113.07C322.727 113.211 323.242 113.281 323.883 113.281C324.336 113.281 324.711 113.273 325.008 113.258C325.305 113.227 325.586 113.188 325.852 113.141V118.789C325.18 119.008 324.477 119.172 323.742 119.281C323.008 119.406 322.227 119.469 321.398 119.469C319.711 119.469 318.266 119.203 317.062 118.672C315.875 118.141 314.969 117.305 314.344 116.164C313.719 115.023 313.406 113.539 313.406 111.711V87.3359ZM341.789 112.625V102.172C341.789 101.453 341.688 100.836 341.484 100.32C341.281 99.8047 340.961 99.4062 340.523 99.125C340.086 98.8281 339.5 98.6797 338.766 98.6797C338.172 98.6797 337.664 98.7812 337.242 98.9844C336.82 99.1875 336.5 99.4922 336.281 99.8984C336.062 100.305 335.953 100.82 335.953 101.445H328.055C328.055 100.273 328.312 99.1875 328.828 98.1875C329.359 97.1719 330.109 96.2891 331.078 95.5391C332.062 94.7891 333.234 94.2109 334.594 93.8047C335.969 93.3828 337.5 93.1719 339.188 93.1719C341.203 93.1719 343 93.5078 344.578 94.1797C346.172 94.8516 347.43 95.8594 348.352 97.2031C349.273 98.5312 349.734 100.203 349.734 102.219V112.602C349.734 114.258 349.828 115.516 350.016 116.375C350.203 117.219 350.469 117.961 350.812 118.602V119H342.891C342.516 118.219 342.234 117.266 342.047 116.141C341.875 115 341.789 113.828 341.789 112.625ZM342.75 103.508L342.797 107.727H339.305C338.57 107.727 337.945 107.828 337.43 108.031C336.93 108.234 336.523 108.516 336.211 108.875C335.914 109.219 335.695 109.609 335.555 110.047C335.43 110.484 335.367 110.945 335.367 111.43C335.367 111.898 335.477 112.32 335.695 112.695C335.93 113.055 336.242 113.336 336.633 113.539C337.023 113.742 337.461 113.844 337.945 113.844C338.82 113.844 339.562 113.68 340.172 113.352C340.797 113.008 341.273 112.594 341.602 112.109C341.93 111.625 342.094 111.172 342.094 110.75L343.828 113.984C343.516 114.609 343.156 115.242 342.75 115.883C342.359 116.523 341.867 117.117 341.273 117.664C340.695 118.195 339.984 118.633 339.141 118.977C338.297 119.305 337.273 119.469 336.07 119.469C334.508 119.469 333.07 119.148 331.758 118.508C330.461 117.867 329.422 116.977 328.641 115.836C327.859 114.68 327.469 113.352 327.469 111.852C327.469 110.539 327.703 109.367 328.172 108.336C328.656 107.305 329.383 106.43 330.352 105.711C331.32 104.992 332.555 104.445 334.055 104.07C335.555 103.695 337.32 103.508 339.352 103.508H342.75ZM367.477 93.6406V99.125H352.195V93.6406H367.477ZM355.406 87.3359H363.305V110.727C363.305 111.398 363.383 111.922 363.539 112.297C363.695 112.656 363.961 112.914 364.336 113.07C364.727 113.211 365.242 113.281 365.883 113.281C366.336 113.281 366.711 113.273 367.008 113.258C367.305 113.227 367.586 113.188 367.852 113.141V118.789C367.18 119.008 366.477 119.172 365.742 119.281C365.008 119.406 364.227 119.469 363.398 119.469C361.711 119.469 360.266 119.203 359.062 118.672C357.875 118.141 356.969 117.305 356.344 116.164C355.719 115.023 355.406 113.539 355.406 111.711V87.3359ZM378.961 93.6406V119H371.039V93.6406H378.961ZM370.57 87.1016C370.57 85.9766 370.977 85.0547 371.789 84.3359C372.602 83.6172 373.656 83.2578 374.953 83.2578C376.25 83.2578 377.305 83.6172 378.117 84.3359C378.93 85.0547 379.336 85.9766 379.336 87.1016C379.336 88.2266 378.93 89.1484 378.117 89.8672C377.305 90.5859 376.25 90.9453 374.953 90.9453C373.656 90.9453 372.602 90.5859 371.789 89.8672C370.977 89.1484 370.57 88.2266 370.57 87.1016ZM382.852 106.578V106.086C382.852 104.227 383.117 102.516 383.648 100.953C384.18 99.375 384.961 98.0078 385.992 96.8516C387.023 95.6953 388.297 94.7969 389.812 94.1562C391.328 93.5 393.078 93.1719 395.062 93.1719C397.062 93.1719 398.82 93.5 400.336 94.1562C401.867 94.7969 403.148 95.6953 404.18 96.8516C405.211 98.0078 405.992 99.375 406.523 100.953C407.055 102.516 407.32 104.227 407.32 106.086V106.578C407.32 108.422 407.055 110.133 406.523 111.711C405.992 113.273 405.211 114.641 404.18 115.812C403.148 116.969 401.875 117.867 400.359 118.508C398.844 119.148 397.094 119.469 395.109 119.469C393.125 119.469 391.367 119.148 389.836 118.508C388.305 117.867 387.023 116.969 385.992 115.812C384.961 114.641 384.18 113.273 383.648 111.711C383.117 110.133 382.852 108.422 382.852 106.578ZM390.75 106.086V106.578C390.75 107.531 390.82 108.422 390.961 109.25C391.102 110.078 391.336 110.805 391.664 111.43C391.992 112.039 392.438 112.516 393 112.859C393.562 113.203 394.266 113.375 395.109 113.375C395.938 113.375 396.625 113.203 397.172 112.859C397.734 112.516 398.18 112.039 398.508 111.43C398.836 110.805 399.07 110.078 399.211 109.25C399.352 108.422 399.422 107.531 399.422 106.578V106.086C399.422 105.164 399.352 104.297 399.211 103.484C399.07 102.656 398.836 101.93 398.508 101.305C398.18 100.664 397.734 100.164 397.172 99.8047C396.609 99.4453 395.906 99.2656 395.062 99.2656C394.234 99.2656 393.539 99.4453 392.977 99.8047C392.43 100.164 391.992 100.664 391.664 101.305C391.336 101.93 391.102 102.656 390.961 103.484C390.82 104.297 390.75 105.164 390.75 106.086ZM418.594 99.0547V119H410.695V93.6406H418.102L418.594 99.0547ZM417.656 105.453L415.805 105.5C415.805 103.562 416.039 101.836 416.508 100.32C416.977 98.7891 417.641 97.4922 418.5 96.4297C419.359 95.3672 420.383 94.5625 421.57 94.0156C422.773 93.4531 424.109 93.1719 425.578 93.1719C426.75 93.1719 427.82 93.3438 428.789 93.6875C429.773 94.0312 430.617 94.5859 431.32 95.3516C432.039 96.1172 432.586 97.1328 432.961 98.3984C433.352 99.6484 433.547 101.195 433.547 103.039V119H425.602V103.016C425.602 102 425.461 101.227 425.18 100.695C424.898 100.148 424.492 99.7734 423.961 99.5703C423.43 99.3672 422.781 99.2656 422.016 99.2656C421.203 99.2656 420.516 99.4219 419.953 99.7344C419.391 100.047 418.938 100.484 418.594 101.047C418.266 101.594 418.023 102.242 417.867 102.992C417.727 103.742 417.656 104.562 417.656 105.453Z" fill="black"/>
<path d="M1134 0H1348C1356.28 0 1363 6.71573 1363 15V148C1363 156.284 1356.28 163 1348 163H1134V0Z" fill="#091F27"/>
<path d="M1280.07 47.5H1216.93L1214.5 49.9286V113.071L1216.93 115.5H1280.07L1282.5 113.071V49.9286L1280.07 47.5ZM1277.64 110.643H1233.93V100.929H1245.1C1246.56 103.843 1249.96 105.786 1253.36 105.786C1258.7 105.786 1263.07 101.414 1263.07 96.0714C1263.07 90.7286 1258.7 86.3571 1253.36 86.3571C1248.01 86.3571 1243.64 90.7286 1243.64 96.0714H1229.07V110.643H1219.36V52.3571H1229.07V63.5286C1226.16 64.9857 1224.21 68.3857 1224.21 71.7857C1224.21 77.1286 1228.59 81.5 1233.93 81.5C1239.27 81.5 1243.64 77.1286 1243.64 71.7857H1253.36C1253.36 77.1286 1257.73 81.5 1263.07 81.5C1268.41 81.5 1272.79 77.1286 1272.79 71.7857C1272.79 66.4429 1268.41 62.0714 1263.07 62.0714C1259.67 62.0714 1256.27 64.0143 1254.81 66.9286H1242.19C1240.73 64.0143 1237.33 62.0714 1233.93 62.0714V52.3571H1277.64V110.643ZM1248.5 96.0714C1248.5 93.1571 1250.44 91.2143 1253.36 91.2143C1256.27 91.2143 1258.21 93.1571 1258.21 96.0714C1258.21 98.9857 1256.27 100.929 1253.36 100.929C1250.44 100.929 1248.5 98.9857 1248.5 96.0714ZM1233.93 66.9286C1236.84 66.9286 1238.79 68.8714 1238.79 71.7857C1238.79 74.7 1236.84 76.6429 1233.93 76.6429C1231.01 76.6429 1229.07 74.7 1229.07 71.7857C1229.07 68.8714 1231.01 66.9286 1233.93 66.9286ZM1263.07 66.9286C1265.99 66.9286 1267.93 68.8714 1267.93 71.7857C1267.93 74.7 1265.99 76.6429 1263.07 76.6429C1260.16 76.6429 1258.21 74.7 1258.21 71.7857C1258.21 68.8714 1260.16 66.9286 1263.07 66.9286Z" fill="white"/>
</svg>
