<svg width="1363" height="163" viewBox="0 0 1363 163" fill="none" xmlns="http://www.w3.org/2000/svg">
<path d="M0 15C0 6.71573 6.71573 0 15 0H37V163H15C6.71573 163 0 156.284 0 148V15Z" fill="#424242"/>
<rect width="1097" height="163" transform="translate(37)" fill="#F0F0F0"/>
<path d="M101.906 53.9219L94.3945 51.2383V48.0859L104.602 52.375V54.6367L101.906 53.9219ZM94.3945 56.1719L101.918 53.4297L104.602 52.7852V55.0352L94.3945 59.3242V56.1719ZM119.836 46.8555L115.195 61H111.457L117.797 43.9375H120.176L119.836 46.8555ZM123.691 61L119.039 46.8555L118.664 43.9375H121.066L127.441 61H123.691ZM123.48 54.6484V57.4023H114.469V54.6484H123.48ZM136.172 57.9648V48.3203H139.547V61H136.371L136.172 57.9648ZM136.547 55.3633L137.543 55.3398C137.543 56.1836 137.445 56.9688 137.25 57.6953C137.055 58.4141 136.762 59.0391 136.371 59.5703C135.98 60.0938 135.488 60.5039 134.895 60.8008C134.301 61.0898 133.602 61.2344 132.797 61.2344C132.18 61.2344 131.609 61.1484 131.086 60.9766C130.57 60.7969 130.125 60.5195 129.75 60.1445C129.383 59.7617 129.094 59.2734 128.883 58.6797C128.68 58.0781 128.578 57.3555 128.578 56.5117V48.3203H131.953V56.5352C131.953 56.9102 131.996 57.2266 132.082 57.4844C132.176 57.7422 132.305 57.9531 132.469 58.1172C132.633 58.2812 132.824 58.3984 133.043 58.4688C133.27 58.5391 133.52 58.5742 133.793 58.5742C134.488 58.5742 135.035 58.4336 135.434 58.1523C135.84 57.8711 136.125 57.4883 136.289 57.0039C136.461 56.5117 136.547 55.9648 136.547 55.3633ZM148.336 48.3203V50.7109H140.953V48.3203H148.336ZM142.781 45.1914H146.156V57.1797C146.156 57.5469 146.203 57.8281 146.297 58.0234C146.398 58.2188 146.547 58.3555 146.742 58.4336C146.938 58.5039 147.184 58.5391 147.48 58.5391C147.691 58.5391 147.879 58.5312 148.043 58.5156C148.215 58.4922 148.359 58.4688 148.477 58.4453L148.488 60.9297C148.199 61.0234 147.887 61.0977 147.551 61.1523C147.215 61.207 146.844 61.2344 146.438 61.2344C145.695 61.2344 145.047 61.1133 144.492 60.8711C143.945 60.6211 143.523 60.2227 143.227 59.6758C142.93 59.1289 142.781 58.4102 142.781 57.5195V45.1914ZM149.414 54.7891V54.543C149.414 53.6133 149.547 52.7578 149.812 51.9766C150.078 51.1875 150.465 50.5039 150.973 49.9258C151.48 49.3477 152.105 48.8984 152.848 48.5781C153.59 48.25 154.441 48.0859 155.402 48.0859C156.363 48.0859 157.219 48.25 157.969 48.5781C158.719 48.8984 159.348 49.3477 159.855 49.9258C160.371 50.5039 160.762 51.1875 161.027 51.9766C161.293 52.7578 161.426 53.6133 161.426 54.543V54.7891C161.426 55.7109 161.293 56.5664 161.027 57.3555C160.762 58.1367 160.371 58.8203 159.855 59.4062C159.348 59.9844 158.723 60.4336 157.98 60.7539C157.238 61.0742 156.387 61.2344 155.426 61.2344C154.465 61.2344 153.609 61.0742 152.859 60.7539C152.117 60.4336 151.488 59.9844 150.973 59.4062C150.465 58.8203 150.078 58.1367 149.812 57.3555C149.547 56.5664 149.414 55.7109 149.414 54.7891ZM152.789 54.543V54.7891C152.789 55.3203 152.836 55.8164 152.93 56.2773C153.023 56.7383 153.172 57.1445 153.375 57.4961C153.586 57.8398 153.859 58.1094 154.195 58.3047C154.531 58.5 154.941 58.5977 155.426 58.5977C155.895 58.5977 156.297 58.5 156.633 58.3047C156.969 58.1094 157.238 57.8398 157.441 57.4961C157.645 57.1445 157.793 56.7383 157.887 56.2773C157.988 55.8164 158.039 55.3203 158.039 54.7891V54.543C158.039 54.0273 157.988 53.543 157.887 53.0898C157.793 52.6289 157.641 52.2227 157.43 51.8711C157.227 51.5117 156.957 51.2305 156.621 51.0273C156.285 50.8242 155.879 50.7227 155.402 50.7227C154.926 50.7227 154.52 50.8242 154.184 51.0273C153.855 51.2305 153.586 51.5117 153.375 51.8711C153.172 52.2227 153.023 52.6289 152.93 53.0898C152.836 53.543 152.789 54.0273 152.789 54.543ZM172.594 56.5352C172.594 56.2305 172.547 55.957 172.453 55.7148C172.367 55.4648 172.203 55.2383 171.961 55.0352C171.719 54.8242 171.379 54.6172 170.941 54.4141C170.504 54.2109 169.938 54 169.242 53.7812C168.469 53.5312 167.734 53.25 167.039 52.9375C166.352 52.625 165.742 52.2617 165.211 51.8477C164.688 51.4258 164.273 50.9375 163.969 50.3828C163.672 49.8281 163.523 49.1836 163.523 48.4492C163.523 47.7383 163.68 47.0938 163.992 46.5156C164.305 45.9297 164.742 45.4297 165.305 45.0156C165.867 44.5938 166.531 44.2695 167.297 44.043C168.07 43.8164 168.918 43.7031 169.84 43.7031C171.098 43.7031 172.195 43.9297 173.133 44.3828C174.07 44.8359 174.797 45.457 175.312 46.2461C175.836 47.0352 176.098 47.9375 176.098 48.9531H172.605C172.605 48.4531 172.5 48.0156 172.289 47.6406C172.086 47.2578 171.773 46.957 171.352 46.7383C170.938 46.5195 170.414 46.4102 169.781 46.4102C169.172 46.4102 168.664 46.5039 168.258 46.6914C167.852 46.8711 167.547 47.1172 167.344 47.4297C167.141 47.7344 167.039 48.0781 167.039 48.4609C167.039 48.75 167.109 49.0117 167.25 49.2461C167.398 49.4805 167.617 49.6992 167.906 49.9023C168.195 50.1055 168.551 50.2969 168.973 50.4766C169.395 50.6562 169.883 50.832 170.438 51.0039C171.367 51.2852 172.184 51.6016 172.887 51.9531C173.598 52.3047 174.191 52.6992 174.668 53.1367C175.145 53.5742 175.504 54.0703 175.746 54.625C175.988 55.1797 176.109 55.8086 176.109 56.5117C176.109 57.2539 175.965 57.918 175.676 58.5039C175.387 59.0898 174.969 59.5859 174.422 59.9922C173.875 60.3984 173.223 60.707 172.465 60.918C171.707 61.1289 170.859 61.2344 169.922 61.2344C169.078 61.2344 168.246 61.125 167.426 60.9062C166.605 60.6797 165.859 60.3398 165.188 59.8867C164.523 59.4336 163.992 58.8555 163.594 58.1523C163.195 57.4492 162.996 56.6172 162.996 55.6562H166.523C166.523 56.1875 166.605 56.6367 166.77 57.0039C166.934 57.3711 167.164 57.668 167.461 57.8945C167.766 58.1211 168.125 58.2852 168.539 58.3867C168.961 58.4883 169.422 58.5391 169.922 58.5391C170.531 58.5391 171.031 58.4531 171.422 58.2812C171.82 58.1094 172.113 57.8711 172.301 57.5664C172.496 57.2617 172.594 56.918 172.594 56.5352ZM182.051 59.5703L185.414 48.3203H189.035L183.938 62.9102C183.828 63.2305 183.68 63.5742 183.492 63.9414C183.312 64.3086 183.066 64.6562 182.754 64.9844C182.449 65.3203 182.062 65.5938 181.594 65.8047C181.133 66.0156 180.566 66.1211 179.895 66.1211C179.574 66.1211 179.312 66.1016 179.109 66.0625C178.906 66.0234 178.664 65.9688 178.383 65.8984V63.4258C178.469 63.4258 178.559 63.4258 178.652 63.4258C178.746 63.4336 178.836 63.4375 178.922 63.4375C179.367 63.4375 179.73 63.3867 180.012 63.2852C180.293 63.1836 180.52 63.0273 180.691 62.8164C180.863 62.6133 181 62.3477 181.102 62.0195L182.051 59.5703ZM180.645 48.3203L183.398 57.5078L183.879 61.082L181.582 61.3281L177.023 48.3203H180.645ZM193.688 51.0273V61H190.312V48.3203H193.477L193.688 51.0273ZM193.195 54.2148H192.281C192.281 53.2773 192.402 52.4336 192.645 51.6836C192.887 50.9258 193.227 50.2812 193.664 49.75C194.102 49.2109 194.621 48.8008 195.223 48.5195C195.832 48.2305 196.512 48.0859 197.262 48.0859C197.855 48.0859 198.398 48.1719 198.891 48.3438C199.383 48.5156 199.805 48.7891 200.156 49.1641C200.516 49.5391 200.789 50.0352 200.977 50.6523C201.172 51.2695 201.27 52.0234 201.27 52.9141V61H197.871V52.9023C197.871 52.3398 197.793 51.9023 197.637 51.5898C197.48 51.2773 197.25 51.0586 196.945 50.9336C196.648 50.8008 196.281 50.7344 195.844 50.7344C195.391 50.7344 194.996 50.8242 194.66 51.0039C194.332 51.1836 194.059 51.4336 193.84 51.7539C193.629 52.0664 193.469 52.4336 193.359 52.8555C193.25 53.2773 193.195 53.7305 193.195 54.2148ZM209.074 58.5977C209.488 58.5977 209.855 58.5195 210.176 58.3633C210.496 58.1992 210.746 57.9727 210.926 57.6836C211.113 57.3867 211.211 57.0391 211.219 56.6406H214.395C214.387 57.5312 214.148 58.3242 213.68 59.0195C213.211 59.707 212.582 60.25 211.793 60.6484C211.004 61.0391 210.121 61.2344 209.145 61.2344C208.16 61.2344 207.301 61.0703 206.566 60.7422C205.84 60.4141 205.234 59.9609 204.75 59.3828C204.266 58.7969 203.902 58.1172 203.66 57.3438C203.418 56.5625 203.297 55.7266 203.297 54.8359V54.4961C203.297 53.5977 203.418 52.7617 203.66 51.9883C203.902 51.207 204.266 50.5273 204.75 49.9492C205.234 49.3633 205.84 48.9062 206.566 48.5781C207.293 48.25 208.145 48.0859 209.121 48.0859C210.16 48.0859 211.07 48.2852 211.852 48.6836C212.641 49.082 213.258 49.6523 213.703 50.3945C214.156 51.1289 214.387 52 214.395 53.0078H211.219C211.211 52.5859 211.121 52.2031 210.949 51.8594C210.785 51.5156 210.543 51.2422 210.223 51.0391C209.91 50.8281 209.523 50.7227 209.062 50.7227C208.57 50.7227 208.168 50.8281 207.855 51.0391C207.543 51.2422 207.301 51.5234 207.129 51.8828C206.957 52.2344 206.836 52.6367 206.766 53.0898C206.703 53.5352 206.672 54.0039 206.672 54.4961V54.8359C206.672 55.3281 206.703 55.8008 206.766 56.2539C206.828 56.707 206.945 57.1094 207.117 57.4609C207.297 57.8125 207.543 58.0898 207.855 58.293C208.168 58.4961 208.574 58.5977 209.074 58.5977Z" fill="#888888"/>
<path d="M114.117 84.875H122.344V107.164C122.344 109.82 121.789 112.07 120.68 113.914C119.57 115.742 118.016 117.125 116.016 118.062C114.016 119 111.664 119.469 108.961 119.469C106.289 119.469 103.938 119 101.906 118.062C99.8906 117.125 98.3125 115.742 97.1719 113.914C96.0469 112.07 95.4844 109.82 95.4844 107.164V84.875H103.734V107.164C103.734 108.57 103.938 109.719 104.344 110.609C104.75 111.484 105.344 112.125 106.125 112.531C106.906 112.938 107.852 113.141 108.961 113.141C110.086 113.141 111.031 112.938 111.797 112.531C112.562 112.125 113.141 111.484 113.531 110.609C113.922 109.719 114.117 108.57 114.117 107.164V84.875ZM136.266 84.875V119H128.062V84.875H136.266ZM172.523 84.875H180.75V107.164C180.75 109.82 180.195 112.07 179.086 113.914C177.977 115.742 176.422 117.125 174.422 118.062C172.422 119 170.07 119.469 167.367 119.469C164.695 119.469 162.344 119 160.312 118.062C158.297 117.125 156.719 115.742 155.578 113.914C154.453 112.07 153.891 109.82 153.891 107.164V84.875H162.141V107.164C162.141 108.57 162.344 109.719 162.75 110.609C163.156 111.484 163.75 112.125 164.531 112.531C165.312 112.938 166.258 113.141 167.367 113.141C168.492 113.141 169.438 112.938 170.203 112.531C170.969 112.125 171.547 111.484 171.938 110.609C172.328 109.719 172.523 108.57 172.523 107.164V84.875ZM193.078 84.875L198.656 96.2188L204.234 84.875H213.609L204.094 101.797L213.867 119H204.398L198.656 107.445L192.914 119H183.422L193.219 101.797L183.68 84.875H193.078Z" fill="black"/>
<path d="M1134 0H1348C1356.28 0 1363 6.71573 1363 15V148C1363 156.284 1356.28 163 1348 163H1134V0Z" fill="#091F27"/>
<path d="M1248.5 111.917C1244.51 111.917 1240.55 111.13 1236.86 109.601C1233.17 108.073 1229.82 105.832 1226.99 103.008C1221.29 97.3036 1218.08 89.567 1218.08 81.5C1218.08 73.433 1221.29 65.6964 1226.99 59.9922C1232.7 54.2879 1240.43 51.0833 1248.5 51.0833C1265.23 51.0833 1278.92 63.25 1278.92 78.4583C1278.92 83.2985 1276.99 87.9405 1273.57 91.363C1270.15 94.7856 1265.51 96.7083 1260.67 96.7083H1255.19C1254.28 96.7083 1253.67 97.3167 1253.67 98.2292C1253.67 98.5333 1253.97 98.8375 1253.97 99.1417C1255.19 100.662 1255.8 102.487 1255.8 104.312C1256.1 108.571 1252.76 111.917 1248.5 111.917ZM1248.5 57.1667C1242.05 57.1667 1235.86 59.7303 1231.29 64.2937C1226.73 68.8571 1224.17 75.0464 1224.17 81.5C1224.17 87.9536 1226.73 94.1429 1231.29 98.7063C1235.86 103.27 1242.05 105.833 1248.5 105.833C1249.41 105.833 1250.02 105.225 1250.02 104.312C1250.02 103.704 1249.72 103.4 1249.72 103.096C1248.5 101.575 1247.89 100.054 1247.89 98.2292C1247.89 93.9708 1251.24 90.625 1255.5 90.625H1260.67C1263.89 90.625 1266.99 89.3432 1269.27 87.0615C1271.55 84.7798 1272.83 81.6851 1272.83 78.4583C1272.83 66.5958 1261.88 57.1667 1248.5 57.1667ZM1231.77 75.4167C1234.2 75.4167 1236.33 77.5458 1236.33 79.9792C1236.33 82.4125 1234.2 84.5417 1231.77 84.5417C1229.34 84.5417 1227.21 82.4125 1227.21 79.9792C1227.21 77.5458 1229.34 75.4167 1231.77 75.4167ZM1240.9 63.25C1243.33 63.25 1245.46 65.3792 1245.46 67.8125C1245.46 70.2458 1243.33 72.375 1240.9 72.375C1238.46 72.375 1236.33 70.2458 1236.33 67.8125C1236.33 65.3792 1238.46 63.25 1240.9 63.25ZM1256.1 63.25C1258.54 63.25 1260.67 65.3792 1260.67 67.8125C1260.67 70.2458 1258.54 72.375 1256.1 72.375C1253.67 72.375 1251.54 70.2458 1251.54 67.8125C1251.54 65.3792 1253.67 63.25 1256.1 63.25ZM1265.23 75.4167C1267.66 75.4167 1269.79 77.5458 1269.79 79.9792C1269.79 82.4125 1267.66 84.5417 1265.23 84.5417C1262.8 84.5417 1260.67 82.4125 1260.67 79.9792C1260.67 77.5458 1262.8 75.4167 1265.23 75.4167Z" fill="white"/>
</svg>
