<svg width="1363" height="163" viewBox="0 0 1363 163" fill="none" xmlns="http://www.w3.org/2000/svg">
<path d="M0 15C0 6.71573 6.71573 0 15 0H37V163H15C6.71573 163 0 156.284 0 148V15Z" fill="#091F27"/>
<rect width="1097" height="163" transform="translate(37)" fill="#F0F0F0"/>
<path d="M101.906 53.9219L94.3945 51.2383V48.0859L104.602 52.375V54.6367L101.906 53.9219ZM94.3945 56.1719L101.918 53.4297L104.602 52.7852V55.0352L94.3945 59.3242V56.1719ZM119.836 46.8555L115.195 61H111.457L117.797 43.9375H120.176L119.836 46.8555ZM123.691 61L119.039 46.8555L118.664 43.9375H121.066L127.441 61H123.691ZM123.48 54.6484V57.4023H114.469V54.6484H123.48ZM136.172 57.9648V48.3203H139.547V61H136.371L136.172 57.9648ZM136.547 55.3633L137.543 55.3398C137.543 56.1836 137.445 56.9688 137.25 57.6953C137.055 58.4141 136.762 59.0391 136.371 59.5703C135.98 60.0938 135.488 60.5039 134.895 60.8008C134.301 61.0898 133.602 61.2344 132.797 61.2344C132.18 61.2344 131.609 61.1484 131.086 60.9766C130.57 60.7969 130.125 60.5195 129.75 60.1445C129.383 59.7617 129.094 59.2734 128.883 58.6797C128.68 58.0781 128.578 57.3555 128.578 56.5117V48.3203H131.953V56.5352C131.953 56.9102 131.996 57.2266 132.082 57.4844C132.176 57.7422 132.305 57.9531 132.469 58.1172C132.633 58.2812 132.824 58.3984 133.043 58.4688C133.27 58.5391 133.52 58.5742 133.793 58.5742C134.488 58.5742 135.035 58.4336 135.434 58.1523C135.84 57.8711 136.125 57.4883 136.289 57.0039C136.461 56.5117 136.547 55.9648 136.547 55.3633ZM148.336 48.3203V50.7109H140.953V48.3203H148.336ZM142.781 45.1914H146.156V57.1797C146.156 57.5469 146.203 57.8281 146.297 58.0234C146.398 58.2188 146.547 58.3555 146.742 58.4336C146.938 58.5039 147.184 58.5391 147.48 58.5391C147.691 58.5391 147.879 58.5312 148.043 58.5156C148.215 58.4922 148.359 58.4688 148.477 58.4453L148.488 60.9297C148.199 61.0234 147.887 61.0977 147.551 61.1523C147.215 61.207 146.844 61.2344 146.438 61.2344C145.695 61.2344 145.047 61.1133 144.492 60.8711C143.945 60.6211 143.523 60.2227 143.227 59.6758C142.93 59.1289 142.781 58.4102 142.781 57.5195V45.1914ZM149.414 54.7891V54.543C149.414 53.6133 149.547 52.7578 149.812 51.9766C150.078 51.1875 150.465 50.5039 150.973 49.9258C151.48 49.3477 152.105 48.8984 152.848 48.5781C153.59 48.25 154.441 48.0859 155.402 48.0859C156.363 48.0859 157.219 48.25 157.969 48.5781C158.719 48.8984 159.348 49.3477 159.855 49.9258C160.371 50.5039 160.762 51.1875 161.027 51.9766C161.293 52.7578 161.426 53.6133 161.426 54.543V54.7891C161.426 55.7109 161.293 56.5664 161.027 57.3555C160.762 58.1367 160.371 58.8203 159.855 59.4062C159.348 59.9844 158.723 60.4336 157.98 60.7539C157.238 61.0742 156.387 61.2344 155.426 61.2344C154.465 61.2344 153.609 61.0742 152.859 60.7539C152.117 60.4336 151.488 59.9844 150.973 59.4062C150.465 58.8203 150.078 58.1367 149.812 57.3555C149.547 56.5664 149.414 55.7109 149.414 54.7891ZM152.789 54.543V54.7891C152.789 55.3203 152.836 55.8164 152.93 56.2773C153.023 56.7383 153.172 57.1445 153.375 57.4961C153.586 57.8398 153.859 58.1094 154.195 58.3047C154.531 58.5 154.941 58.5977 155.426 58.5977C155.895 58.5977 156.297 58.5 156.633 58.3047C156.969 58.1094 157.238 57.8398 157.441 57.4961C157.645 57.1445 157.793 56.7383 157.887 56.2773C157.988 55.8164 158.039 55.3203 158.039 54.7891V54.543C158.039 54.0273 157.988 53.543 157.887 53.0898C157.793 52.6289 157.641 52.2227 157.43 51.8711C157.227 51.5117 156.957 51.2305 156.621 51.0273C156.285 50.8242 155.879 50.7227 155.402 50.7227C154.926 50.7227 154.52 50.8242 154.184 51.0273C153.855 51.2305 153.586 51.5117 153.375 51.8711C153.172 52.2227 153.023 52.6289 152.93 53.0898C152.836 53.543 152.789 54.0273 152.789 54.543ZM172.594 56.5352C172.594 56.2305 172.547 55.957 172.453 55.7148C172.367 55.4648 172.203 55.2383 171.961 55.0352C171.719 54.8242 171.379 54.6172 170.941 54.4141C170.504 54.2109 169.938 54 169.242 53.7812C168.469 53.5312 167.734 53.25 167.039 52.9375C166.352 52.625 165.742 52.2617 165.211 51.8477C164.688 51.4258 164.273 50.9375 163.969 50.3828C163.672 49.8281 163.523 49.1836 163.523 48.4492C163.523 47.7383 163.68 47.0938 163.992 46.5156C164.305 45.9297 164.742 45.4297 165.305 45.0156C165.867 44.5938 166.531 44.2695 167.297 44.043C168.07 43.8164 168.918 43.7031 169.84 43.7031C171.098 43.7031 172.195 43.9297 173.133 44.3828C174.07 44.8359 174.797 45.457 175.312 46.2461C175.836 47.0352 176.098 47.9375 176.098 48.9531H172.605C172.605 48.4531 172.5 48.0156 172.289 47.6406C172.086 47.2578 171.773 46.957 171.352 46.7383C170.938 46.5195 170.414 46.4102 169.781 46.4102C169.172 46.4102 168.664 46.5039 168.258 46.6914C167.852 46.8711 167.547 47.1172 167.344 47.4297C167.141 47.7344 167.039 48.0781 167.039 48.4609C167.039 48.75 167.109 49.0117 167.25 49.2461C167.398 49.4805 167.617 49.6992 167.906 49.9023C168.195 50.1055 168.551 50.2969 168.973 50.4766C169.395 50.6562 169.883 50.832 170.438 51.0039C171.367 51.2852 172.184 51.6016 172.887 51.9531C173.598 52.3047 174.191 52.6992 174.668 53.1367C175.145 53.5742 175.504 54.0703 175.746 54.625C175.988 55.1797 176.109 55.8086 176.109 56.5117C176.109 57.2539 175.965 57.918 175.676 58.5039C175.387 59.0898 174.969 59.5859 174.422 59.9922C173.875 60.3984 173.223 60.707 172.465 60.918C171.707 61.1289 170.859 61.2344 169.922 61.2344C169.078 61.2344 168.246 61.125 167.426 60.9062C166.605 60.6797 165.859 60.3398 165.188 59.8867C164.523 59.4336 163.992 58.8555 163.594 58.1523C163.195 57.4492 162.996 56.6172 162.996 55.6562H166.523C166.523 56.1875 166.605 56.6367 166.77 57.0039C166.934 57.3711 167.164 57.668 167.461 57.8945C167.766 58.1211 168.125 58.2852 168.539 58.3867C168.961 58.4883 169.422 58.5391 169.922 58.5391C170.531 58.5391 171.031 58.4531 171.422 58.2812C171.82 58.1094 172.113 57.8711 172.301 57.5664C172.496 57.2617 172.594 56.918 172.594 56.5352ZM182.051 59.5703L185.414 48.3203H189.035L183.938 62.9102C183.828 63.2305 183.68 63.5742 183.492 63.9414C183.312 64.3086 183.066 64.6562 182.754 64.9844C182.449 65.3203 182.062 65.5938 181.594 65.8047C181.133 66.0156 180.566 66.1211 179.895 66.1211C179.574 66.1211 179.312 66.1016 179.109 66.0625C178.906 66.0234 178.664 65.9688 178.383 65.8984V63.4258C178.469 63.4258 178.559 63.4258 178.652 63.4258C178.746 63.4336 178.836 63.4375 178.922 63.4375C179.367 63.4375 179.73 63.3867 180.012 63.2852C180.293 63.1836 180.52 63.0273 180.691 62.8164C180.863 62.6133 181 62.3477 181.102 62.0195L182.051 59.5703ZM180.645 48.3203L183.398 57.5078L183.879 61.082L181.582 61.3281L177.023 48.3203H180.645ZM193.688 51.0273V61H190.312V48.3203H193.477L193.688 51.0273ZM193.195 54.2148H192.281C192.281 53.2773 192.402 52.4336 192.645 51.6836C192.887 50.9258 193.227 50.2812 193.664 49.75C194.102 49.2109 194.621 48.8008 195.223 48.5195C195.832 48.2305 196.512 48.0859 197.262 48.0859C197.855 48.0859 198.398 48.1719 198.891 48.3438C199.383 48.5156 199.805 48.7891 200.156 49.1641C200.516 49.5391 200.789 50.0352 200.977 50.6523C201.172 51.2695 201.27 52.0234 201.27 52.9141V61H197.871V52.9023C197.871 52.3398 197.793 51.9023 197.637 51.5898C197.48 51.2773 197.25 51.0586 196.945 50.9336C196.648 50.8008 196.281 50.7344 195.844 50.7344C195.391 50.7344 194.996 50.8242 194.66 51.0039C194.332 51.1836 194.059 51.4336 193.84 51.7539C193.629 52.0664 193.469 52.4336 193.359 52.8555C193.25 53.2773 193.195 53.7305 193.195 54.2148ZM209.074 58.5977C209.488 58.5977 209.855 58.5195 210.176 58.3633C210.496 58.1992 210.746 57.9727 210.926 57.6836C211.113 57.3867 211.211 57.0391 211.219 56.6406H214.395C214.387 57.5312 214.148 58.3242 213.68 59.0195C213.211 59.707 212.582 60.25 211.793 60.6484C211.004 61.0391 210.121 61.2344 209.145 61.2344C208.16 61.2344 207.301 61.0703 206.566 60.7422C205.84 60.4141 205.234 59.9609 204.75 59.3828C204.266 58.7969 203.902 58.1172 203.66 57.3438C203.418 56.5625 203.297 55.7266 203.297 54.8359V54.4961C203.297 53.5977 203.418 52.7617 203.66 51.9883C203.902 51.207 204.266 50.5273 204.75 49.9492C205.234 49.3633 205.84 48.9062 206.566 48.5781C207.293 48.25 208.145 48.0859 209.121 48.0859C210.16 48.0859 211.07 48.2852 211.852 48.6836C212.641 49.082 213.258 49.6523 213.703 50.3945C214.156 51.1289 214.387 52 214.395 53.0078H211.219C211.211 52.5859 211.121 52.2031 210.949 51.8594C210.785 51.5156 210.543 51.2422 210.223 51.0391C209.91 50.8281 209.523 50.7227 209.062 50.7227C208.57 50.7227 208.168 50.8281 207.855 51.0391C207.543 51.2422 207.301 51.5234 207.129 51.8828C206.957 52.2344 206.836 52.6367 206.766 53.0898C206.703 53.5352 206.672 54.0039 206.672 54.4961V54.8359C206.672 55.3281 206.703 55.8008 206.766 56.2539C206.828 56.707 206.945 57.1094 207.117 57.4609C207.297 57.8125 207.543 58.0898 207.855 58.293C208.168 58.4961 208.574 58.5977 209.074 58.5977Z" fill="#888888"/>
<path d="M118.594 98.4219V104.75H101.086V98.4219H118.594ZM103.828 84.875V119H95.6016V84.875H103.828ZM124.125 84.875V119H115.922V84.875H124.125ZM127.992 106.578V106.086C127.992 104.227 128.258 102.516 128.789 100.953C129.32 99.375 130.102 98.0078 131.133 96.8516C132.164 95.6953 133.438 94.7969 134.953 94.1562C136.469 93.5 138.219 93.1719 140.203 93.1719C142.203 93.1719 143.961 93.5 145.477 94.1562C147.008 94.7969 148.289 95.6953 149.32 96.8516C150.352 98.0078 151.133 99.375 151.664 100.953C152.195 102.516 152.461 104.227 152.461 106.086V106.578C152.461 108.422 152.195 110.133 151.664 111.711C151.133 113.273 150.352 114.641 149.32 115.812C148.289 116.969 147.016 117.867 145.5 118.508C143.984 119.148 142.234 119.469 140.25 119.469C138.266 119.469 136.508 119.148 134.977 118.508C133.445 117.867 132.164 116.969 131.133 115.812C130.102 114.641 129.32 113.273 128.789 111.711C128.258 110.133 127.992 108.422 127.992 106.578ZM135.891 106.086V106.578C135.891 107.531 135.961 108.422 136.102 109.25C136.242 110.078 136.477 110.805 136.805 111.43C137.133 112.039 137.578 112.516 138.141 112.859C138.703 113.203 139.406 113.375 140.25 113.375C141.078 113.375 141.766 113.203 142.312 112.859C142.875 112.516 143.32 112.039 143.648 111.43C143.977 110.805 144.211 110.078 144.352 109.25C144.492 108.422 144.562 107.531 144.562 106.578V106.086C144.562 105.164 144.492 104.297 144.352 103.484C144.211 102.656 143.977 101.93 143.648 101.305C143.32 100.664 142.875 100.164 142.312 99.8047C141.75 99.4453 141.047 99.2656 140.203 99.2656C139.375 99.2656 138.68 99.4453 138.117 99.8047C137.57 100.164 137.133 100.664 136.805 101.305C136.477 101.93 136.242 102.656 136.102 103.484C135.961 104.297 135.891 105.164 135.891 106.086ZM163.688 111.453L168.375 93.6406H173.32L171.562 102.57L166.922 119H162.961L163.688 111.453ZM161.836 93.6406L164.742 111.312L165.07 119H160.266L154.266 93.6406H161.836ZM177.492 110.938L180.422 93.6406H187.992L182.039 119H177.234L177.492 110.938ZM173.883 93.6406L178.617 111.406L179.344 119H175.336L170.789 102.617L169.102 93.6406H173.883ZM218.297 84.875V119H210.07V84.875H218.297ZM228.562 84.875V91.2266H200.039V84.875H228.562ZM225.773 106.578V106.086C225.773 104.227 226.039 102.516 226.57 100.953C227.102 99.375 227.883 98.0078 228.914 96.8516C229.945 95.6953 231.219 94.7969 232.734 94.1562C234.25 93.5 236 93.1719 237.984 93.1719C239.984 93.1719 241.742 93.5 243.258 94.1562C244.789 94.7969 246.07 95.6953 247.102 96.8516C248.133 98.0078 248.914 99.375 249.445 100.953C249.977 102.516 250.242 104.227 250.242 106.086V106.578C250.242 108.422 249.977 110.133 249.445 111.711C248.914 113.273 248.133 114.641 247.102 115.812C246.07 116.969 244.797 117.867 243.281 118.508C241.766 119.148 240.016 119.469 238.031 119.469C236.047 119.469 234.289 119.148 232.758 118.508C231.227 117.867 229.945 116.969 228.914 115.812C227.883 114.641 227.102 113.273 226.57 111.711C226.039 110.133 225.773 108.422 225.773 106.578ZM233.672 106.086V106.578C233.672 107.531 233.742 108.422 233.883 109.25C234.023 110.078 234.258 110.805 234.586 111.43C234.914 112.039 235.359 112.516 235.922 112.859C236.484 113.203 237.188 113.375 238.031 113.375C238.859 113.375 239.547 113.203 240.094 112.859C240.656 112.516 241.102 112.039 241.43 111.43C241.758 110.805 241.992 110.078 242.133 109.25C242.273 108.422 242.344 107.531 242.344 106.578V106.086C242.344 105.164 242.273 104.297 242.133 103.484C241.992 102.656 241.758 101.93 241.43 101.305C241.102 100.664 240.656 100.164 240.094 99.8047C239.531 99.4453 238.828 99.2656 237.984 99.2656C237.156 99.2656 236.461 99.4453 235.898 99.8047C235.352 100.164 234.914 100.664 234.586 101.305C234.258 101.93 234.023 102.656 233.883 103.484C233.742 104.297 233.672 105.164 233.672 106.086ZM266.086 84.875H279.516C282.141 84.875 284.422 85.2656 286.359 86.0469C288.297 86.8281 289.789 87.9844 290.836 89.5156C291.898 91.0469 292.43 92.9375 292.43 95.1875C292.43 97.1406 292.125 98.7734 291.516 100.086C290.906 101.398 290.055 102.484 288.961 103.344C287.883 104.188 286.625 104.883 285.188 105.43L282.492 106.953H271.219L271.172 100.602H279.516C280.562 100.602 281.43 100.414 282.117 100.039C282.805 99.6641 283.32 99.1328 283.664 98.4453C284.023 97.7422 284.203 96.9062 284.203 95.9375C284.203 94.9531 284.023 94.1094 283.664 93.4062C283.305 92.7031 282.773 92.1641 282.07 91.7891C281.383 91.4141 280.531 91.2266 279.516 91.2266H274.312V119H266.086V84.875ZM284.766 119L277.219 103.906L285.938 103.859L293.578 118.648V119H284.766ZM311.836 112.836V93.6406H319.758V119H312.352L311.836 112.836ZM312.586 107.68L314.648 107.633C314.648 109.336 314.445 110.914 314.039 112.367C313.633 113.805 313.031 115.055 312.234 116.117C311.453 117.18 310.484 118.008 309.328 118.602C308.188 119.18 306.867 119.469 305.367 119.469C304.117 119.469 302.969 119.297 301.922 118.953C300.891 118.594 300 118.039 299.25 117.289C298.5 116.523 297.914 115.547 297.492 114.359C297.086 113.156 296.883 111.719 296.883 110.047V93.6406H304.781V110.094C304.781 110.656 304.852 111.141 304.992 111.547C305.133 111.953 305.336 112.297 305.602 112.578C305.867 112.844 306.195 113.047 306.586 113.188C306.992 113.312 307.453 113.375 307.969 113.375C309.156 113.375 310.086 113.125 310.758 112.625C311.43 112.125 311.898 111.445 312.164 110.586C312.445 109.727 312.586 108.758 312.586 107.68ZM331.875 99.0547V119H323.977V93.6406H331.383L331.875 99.0547ZM330.938 105.453L329.086 105.5C329.086 103.562 329.32 101.836 329.789 100.32C330.258 98.7891 330.922 97.4922 331.781 96.4297C332.641 95.3672 333.664 94.5625 334.852 94.0156C336.055 93.4531 337.391 93.1719 338.859 93.1719C340.031 93.1719 341.102 93.3438 342.07 93.6875C343.055 94.0312 343.898 94.5859 344.602 95.3516C345.32 96.1172 345.867 97.1328 346.242 98.3984C346.633 99.6484 346.828 101.195 346.828 103.039V119H338.883V103.016C338.883 102 338.742 101.227 338.461 100.695C338.18 100.148 337.773 99.7734 337.242 99.5703C336.711 99.3672 336.062 99.2656 335.297 99.2656C334.484 99.2656 333.797 99.4219 333.234 99.7344C332.672 100.047 332.219 100.484 331.875 101.047C331.547 101.594 331.305 102.242 331.148 102.992C331.008 103.742 330.938 104.562 330.938 105.453ZM363.773 108.195H357.047C357.047 106.82 357.141 105.609 357.328 104.562C357.531 103.5 357.875 102.547 358.359 101.703C358.844 100.859 359.5 100.078 360.328 99.3594C361.062 98.75 361.695 98.1641 362.227 97.6016C362.758 97.0391 363.164 96.4688 363.445 95.8906C363.727 95.3125 363.867 94.6953 363.867 94.0391C363.867 93.2266 363.75 92.5625 363.516 92.0469C363.297 91.5312 362.961 91.1484 362.508 90.8984C362.07 90.6328 361.516 90.5 360.844 90.5C360.297 90.5 359.781 90.6328 359.297 90.8984C358.828 91.1641 358.445 91.5781 358.148 92.1406C357.852 92.6875 357.688 93.4141 357.656 94.3203H349.711C349.758 91.9922 350.273 90.1016 351.258 88.6484C352.258 87.1797 353.586 86.1094 355.242 85.4375C356.914 84.75 358.781 84.4062 360.844 84.4062C363.125 84.4062 365.086 84.7578 366.727 85.4609C368.367 86.1641 369.625 87.2109 370.5 88.6016C371.375 89.9766 371.812 91.6719 371.812 93.6875C371.812 95.0312 371.555 96.2031 371.039 97.2031C370.539 98.1875 369.859 99.1094 369 99.9688C368.156 100.812 367.211 101.719 366.164 102.688C365.258 103.484 364.641 104.297 364.312 105.125C363.984 105.938 363.805 106.961 363.773 108.195ZM356.086 115.32C356.086 114.195 356.492 113.258 357.305 112.508C358.117 111.742 359.172 111.359 360.469 111.359C361.766 111.359 362.82 111.742 363.633 112.508C364.445 113.258 364.852 114.195 364.852 115.32C364.852 116.445 364.445 117.391 363.633 118.156C362.82 118.906 361.766 119.281 360.469 119.281C359.172 119.281 358.117 118.906 357.305 118.156C356.492 117.391 356.086 116.445 356.086 115.32Z" fill="black"/>
<path d="M1134 0H1348C1356.28 0 1363 6.71573 1363 15V148C1363 156.284 1356.28 163 1348 163H1134V0Z" fill="#091F27"/>
<path d="M1260.62 78.8847C1263.81 78.8847 1266.93 79.805 1269.59 81.5293C1272.25 83.2536 1274.32 85.7044 1275.54 88.5718C1276.76 91.4391 1277.08 94.5943 1276.46 97.6383C1275.84 100.682 1274.3 103.478 1272.04 105.673C1269.78 107.868 1266.9 109.362 1263.77 109.968C1260.63 110.573 1257.39 110.262 1254.43 109.075C1251.48 107.887 1248.96 105.876 1247.18 103.295C1245.41 100.714 1244.46 97.6806 1244.46 94.5769C1244.46 90.4151 1246.16 86.4237 1249.19 83.4808C1252.22 80.538 1256.33 78.8847 1260.62 78.8847ZM1260.62 73.6539C1256.36 73.6539 1252.19 74.881 1248.65 77.1801C1245.11 79.4791 1242.35 82.7469 1240.72 86.57C1239.09 90.3932 1238.66 94.6001 1239.49 98.6588C1240.32 102.717 1242.37 106.446 1245.39 109.372C1248.4 112.298 1252.24 114.291 1256.41 115.098C1260.59 115.905 1264.92 115.491 1268.86 113.907C1272.79 112.324 1276.16 109.642 1278.52 106.201C1280.89 102.76 1282.15 98.7151 1282.15 94.5769C1282.15 89.0278 1279.88 83.706 1275.85 79.7821C1271.81 75.8583 1266.33 73.6539 1260.62 73.6539Z" fill="white"/>
<path d="M1274.08 47.5H1220.23C1218.8 47.5 1217.43 48.0511 1216.42 49.0321C1215.41 50.013 1214.85 51.3435 1214.85 52.7307V105.038C1214.85 106.426 1215.41 107.756 1216.42 108.737C1217.43 109.718 1218.8 110.269 1220.23 110.269H1231V105.038H1220.23V68.423H1279.46V52.7307C1279.46 51.3435 1278.89 50.013 1277.88 49.0321C1276.87 48.0511 1275.5 47.5 1274.08 47.5ZM1220.23 63.1922V52.7307H1274.08V63.1922H1220.23Z" fill="white"/>
<path d="M1255.23 86.731V102.423L1268.69 94.5771L1255.23 86.731Z" fill="white"/>
</svg>
