<svg width="1363" height="297" viewBox="0 0 1363 297" fill="none" xmlns="http://www.w3.org/2000/svg">
<path d="M0 15C0 6.71573 6.71573 0 15 0H37V297H15C6.71573 297 0 290.284 0 282V15Z" fill="#091F27"/>
<path d="M37 0H1066V297H37V0Z" fill="#F0F0F0"/>
<path d="M97.6934 49.4062H102.158L108.732 68.1973L115.307 49.4062H119.771L110.525 75H106.939L97.6934 49.4062ZM95.2852 49.4062H99.7324L100.541 67.7227V75H95.2852V49.4062ZM117.732 49.4062H122.197V75H116.924V67.7227L117.732 49.4062ZM136.77 70.7109V62.2383C136.77 61.6289 136.67 61.1074 136.471 60.6738C136.271 60.2285 135.961 59.8828 135.539 59.6367C135.129 59.3906 134.596 59.2676 133.939 59.2676C133.377 59.2676 132.891 59.3672 132.48 59.5664C132.07 59.7539 131.754 60.0293 131.531 60.3926C131.309 60.7441 131.197 61.1602 131.197 61.6406H126.135C126.135 60.832 126.322 60.0645 126.697 59.3379C127.072 58.6113 127.617 57.9727 128.332 57.4219C129.047 56.8594 129.896 56.4199 130.881 56.1035C131.877 55.7871 132.99 55.6289 134.221 55.6289C135.697 55.6289 137.01 55.875 138.158 56.3672C139.307 56.8594 140.209 57.5977 140.865 58.582C141.533 59.5664 141.867 60.7969 141.867 62.2734V70.4121C141.867 71.4551 141.932 72.3105 142.061 72.9785C142.189 73.6348 142.377 74.209 142.623 74.7012V75H137.508C137.262 74.4844 137.074 73.8398 136.945 73.0664C136.828 72.2812 136.77 71.4961 136.77 70.7109ZM137.438 63.416L137.473 66.2812H134.643C133.975 66.2812 133.395 66.3574 132.902 66.5098C132.41 66.6621 132.006 66.8789 131.689 67.1602C131.373 67.4297 131.139 67.7461 130.986 68.1094C130.846 68.4727 130.775 68.8711 130.775 69.3047C130.775 69.7383 130.875 70.1309 131.074 70.4824C131.273 70.8223 131.561 71.0918 131.936 71.291C132.311 71.4785 132.75 71.5723 133.254 71.5723C134.016 71.5723 134.678 71.4199 135.24 71.1152C135.803 70.8105 136.236 70.4355 136.541 69.9902C136.857 69.5449 137.021 69.123 137.033 68.7246L138.369 70.8691C138.182 71.3496 137.924 71.8477 137.596 72.3633C137.279 72.8789 136.875 73.3652 136.383 73.8223C135.891 74.2676 135.299 74.6367 134.607 74.9297C133.916 75.2109 133.096 75.3516 132.146 75.3516C130.939 75.3516 129.844 75.1113 128.859 74.6309C127.887 74.1387 127.113 73.4648 126.539 72.6094C125.977 71.7422 125.695 70.7578 125.695 69.6562C125.695 68.6602 125.883 67.7754 126.258 67.002C126.633 66.2285 127.184 65.5781 127.91 65.0508C128.648 64.5117 129.568 64.1074 130.67 63.8379C131.771 63.5566 133.049 63.416 134.502 63.416H137.438ZM146.051 55.9805H151.131V76.1426C151.131 77.5488 150.873 78.7383 150.357 79.7109C149.842 80.6836 149.098 81.4219 148.125 81.9258C147.152 82.4297 145.975 82.6816 144.592 82.6816C144.158 82.6816 143.736 82.6582 143.326 82.6113C142.904 82.5645 142.471 82.4883 142.025 82.3828L142.043 78.498C142.324 78.5449 142.6 78.5801 142.869 78.6035C143.127 78.6387 143.391 78.6562 143.66 78.6562C144.188 78.6562 144.627 78.5684 144.979 78.3926C145.33 78.2168 145.594 77.9414 145.77 77.5664C145.957 77.2031 146.051 76.7285 146.051 76.1426V55.9805ZM145.646 51.0234C145.646 50.2852 145.904 49.6758 146.42 49.1953C146.947 48.7148 147.639 48.4746 148.494 48.4746C149.361 48.4746 150.053 48.7148 150.568 49.1953C151.084 49.6758 151.342 50.2852 151.342 51.0234C151.342 51.7617 151.084 52.3711 150.568 52.8516C150.053 53.332 149.361 53.5723 148.494 53.5723C147.639 53.5723 146.947 53.332 146.42 52.8516C145.904 52.3711 145.646 51.7617 145.646 51.0234ZM166.389 70.8516V48H171.486V75H166.898L166.389 70.8516ZM154.365 65.7188V65.3496C154.365 63.8965 154.529 62.5781 154.857 61.3945C155.186 60.1992 155.666 59.1738 156.299 58.3184C156.932 57.4629 157.711 56.8008 158.637 56.332C159.562 55.8633 160.617 55.6289 161.801 55.6289C162.914 55.6289 163.887 55.8633 164.719 56.332C165.562 56.8008 166.277 57.4688 166.863 58.3359C167.461 59.1914 167.941 60.2051 168.305 61.377C168.668 62.5371 168.932 63.8086 169.096 65.1914V66C168.932 67.3242 168.668 68.5547 168.305 69.6914C167.941 70.8281 167.461 71.8242 166.863 72.6797C166.277 73.5234 165.562 74.1797 164.719 74.6484C163.875 75.1172 162.891 75.3516 161.766 75.3516C160.582 75.3516 159.527 75.1113 158.602 74.6309C157.688 74.1504 156.914 73.4766 156.281 72.6094C155.66 71.7422 155.186 70.7227 154.857 69.5508C154.529 68.3789 154.365 67.1016 154.365 65.7188ZM159.428 65.3496V65.7188C159.428 66.5039 159.486 67.2363 159.604 67.916C159.732 68.5957 159.938 69.1992 160.219 69.7266C160.512 70.2422 160.887 70.6465 161.344 70.9395C161.812 71.2207 162.381 71.3613 163.049 71.3613C163.916 71.3613 164.631 71.168 165.193 70.7812C165.756 70.3828 166.184 69.8379 166.477 69.1465C166.781 68.4551 166.957 67.6582 167.004 66.7559V64.4531C166.969 63.7148 166.863 63.0527 166.688 62.4668C166.523 61.8691 166.277 61.3594 165.949 60.9375C165.633 60.5156 165.234 60.1875 164.754 59.9531C164.285 59.7188 163.729 59.6016 163.084 59.6016C162.428 59.6016 161.865 59.7539 161.396 60.0586C160.928 60.3516 160.547 60.7559 160.254 61.2715C159.973 61.7871 159.762 62.3965 159.621 63.0996C159.492 63.791 159.428 64.541 159.428 65.3496ZM194.742 63.7676H188.168L188.133 60.1465H193.652C194.625 60.1465 195.422 60.0234 196.043 59.7773C196.664 59.5195 197.127 59.1504 197.432 58.6699C197.748 58.1777 197.906 57.5801 197.906 56.877C197.906 56.0801 197.754 55.4355 197.449 54.9434C197.156 54.4512 196.693 54.0938 196.061 53.8711C195.439 53.6484 194.637 53.5371 193.652 53.5371H189.996V75H184.723V49.4062H193.652C195.141 49.4062 196.471 49.5469 197.643 49.8281C198.826 50.1094 199.828 50.5371 200.648 51.1113C201.469 51.6855 202.096 52.4121 202.529 53.291C202.963 54.1582 203.18 55.1895 203.18 56.3848C203.18 57.4395 202.939 58.4121 202.459 59.3027C201.99 60.1934 201.246 60.9199 200.227 61.4824C199.219 62.0449 197.9 62.3555 196.271 62.4141L194.742 63.7676ZM194.514 75H186.727L188.783 70.8867H194.514C195.439 70.8867 196.195 70.7402 196.781 70.4473C197.367 70.1426 197.801 69.7324 198.082 69.2168C198.363 68.7012 198.504 68.1094 198.504 67.4414C198.504 66.6914 198.375 66.041 198.117 65.4902C197.871 64.9395 197.473 64.5176 196.922 64.2246C196.371 63.9199 195.645 63.7676 194.742 63.7676H189.662L189.697 60.1465H196.025L197.238 61.5703C198.797 61.5469 200.051 61.8223 201 62.3965C201.961 62.959 202.658 63.6914 203.092 64.5938C203.537 65.4961 203.76 66.4629 203.76 67.4941C203.76 69.1348 203.402 70.5176 202.688 71.6426C201.973 72.7559 200.924 73.5938 199.541 74.1562C198.17 74.7188 196.494 75 194.514 75ZM212.742 55.9805V75H207.662V55.9805H212.742ZM207.346 51.0234C207.346 50.2852 207.604 49.6758 208.119 49.1953C208.635 48.7148 209.326 48.4746 210.193 48.4746C211.049 48.4746 211.734 48.7148 212.25 49.1953C212.777 49.6758 213.041 50.2852 213.041 51.0234C213.041 51.7617 212.777 52.3711 212.25 52.8516C211.734 53.332 211.049 53.5723 210.193 53.5723C209.326 53.5723 208.635 53.332 208.119 52.8516C207.604 52.3711 207.346 51.7617 207.346 51.0234ZM226.242 55.9805V59.5664H215.168V55.9805H226.242ZM217.91 51.2871H222.973V69.2695C222.973 69.8203 223.043 70.2422 223.184 70.5352C223.336 70.8281 223.559 71.0332 223.852 71.1504C224.145 71.2559 224.514 71.3086 224.959 71.3086C225.275 71.3086 225.557 71.2969 225.803 71.2734C226.061 71.2383 226.277 71.2031 226.453 71.168L226.471 74.8945C226.037 75.0352 225.568 75.1465 225.064 75.2285C224.561 75.3105 224.004 75.3516 223.395 75.3516C222.281 75.3516 221.309 75.1699 220.477 74.8066C219.656 74.4316 219.023 73.834 218.578 73.0137C218.133 72.1934 217.91 71.1152 217.91 69.7793V51.2871ZM239.391 70.7109V62.2383C239.391 61.6289 239.291 61.1074 239.092 60.6738C238.893 60.2285 238.582 59.8828 238.16 59.6367C237.75 59.3906 237.217 59.2676 236.561 59.2676C235.998 59.2676 235.512 59.3672 235.102 59.5664C234.691 59.7539 234.375 60.0293 234.152 60.3926C233.93 60.7441 233.818 61.1602 233.818 61.6406H228.756C228.756 60.832 228.943 60.0645 229.318 59.3379C229.693 58.6113 230.238 57.9727 230.953 57.4219C231.668 56.8594 232.518 56.4199 233.502 56.1035C234.498 55.7871 235.611 55.6289 236.842 55.6289C238.318 55.6289 239.631 55.875 240.779 56.3672C241.928 56.8594 242.83 57.5977 243.486 58.582C244.154 59.5664 244.488 60.7969 244.488 62.2734V70.4121C244.488 71.4551 244.553 72.3105 244.682 72.9785C244.811 73.6348 244.998 74.209 245.244 74.7012V75H240.129C239.883 74.4844 239.695 73.8398 239.566 73.0664C239.449 72.2812 239.391 71.4961 239.391 70.7109ZM240.059 63.416L240.094 66.2812H237.264C236.596 66.2812 236.016 66.3574 235.523 66.5098C235.031 66.6621 234.627 66.8789 234.311 67.1602C233.994 67.4297 233.76 67.7461 233.607 68.1094C233.467 68.4727 233.396 68.8711 233.396 69.3047C233.396 69.7383 233.496 70.1309 233.695 70.4824C233.895 70.8223 234.182 71.0918 234.557 71.291C234.932 71.4785 235.371 71.5723 235.875 71.5723C236.637 71.5723 237.299 71.4199 237.861 71.1152C238.424 70.8105 238.857 70.4355 239.162 69.9902C239.479 69.5449 239.643 69.123 239.654 68.7246L240.99 70.8691C240.803 71.3496 240.545 71.8477 240.217 72.3633C239.9 72.8789 239.496 73.3652 239.004 73.8223C238.512 74.2676 237.92 74.6367 237.229 74.9297C236.537 75.2109 235.717 75.3516 234.768 75.3516C233.561 75.3516 232.465 75.1113 231.48 74.6309C230.508 74.1387 229.734 73.4648 229.16 72.6094C228.598 71.7422 228.316 70.7578 228.316 69.6562C228.316 68.6602 228.504 67.7754 228.879 67.002C229.254 66.2285 229.805 65.5781 230.531 65.0508C231.27 64.5117 232.189 64.1074 233.291 63.8379C234.393 63.5566 235.67 63.416 237.123 63.416H240.059ZM253.453 60.1289V75H248.391V55.9805H253.154L253.453 60.1289ZM259.184 55.8574L259.096 60.5508C258.85 60.5156 258.551 60.4863 258.199 60.4629C257.859 60.4277 257.549 60.4102 257.268 60.4102C256.553 60.4102 255.932 60.5039 255.404 60.6914C254.889 60.8672 254.455 61.1309 254.104 61.4824C253.764 61.834 253.506 62.2617 253.33 62.7656C253.166 63.2695 253.072 63.8438 253.049 64.4883L252.029 64.1719C252.029 62.9414 252.152 61.8105 252.398 60.7793C252.645 59.7363 253.002 58.8281 253.471 58.0547C253.951 57.2812 254.537 56.6836 255.229 56.2617C255.92 55.8398 256.711 55.6289 257.602 55.6289C257.883 55.6289 258.17 55.6523 258.463 55.6992C258.756 55.7344 258.996 55.7871 259.184 55.8574Z" fill="#888888"/>
<path d="M112.906 108.555L103.199 140H92.8906L107.52 100.188H114.055L112.906 108.555ZM120.945 140L111.211 108.555L109.953 100.188H116.57L131.281 140H120.945ZM120.562 125.152V132.562H100.137V125.152H120.562ZM150.723 132.809V110.414H159.965V140H151.324L150.723 132.809ZM151.598 126.793L154.004 126.738C154.004 128.725 153.767 130.566 153.293 132.262C152.819 133.939 152.117 135.397 151.188 136.637C150.276 137.876 149.146 138.842 147.797 139.535C146.466 140.21 144.926 140.547 143.176 140.547C141.717 140.547 140.378 140.346 139.156 139.945C137.953 139.526 136.914 138.879 136.039 138.004C135.164 137.111 134.48 135.971 133.988 134.586C133.514 133.182 133.277 131.505 133.277 129.555V110.414H142.492V129.609C142.492 130.266 142.574 130.831 142.738 131.305C142.902 131.779 143.139 132.18 143.449 132.508C143.759 132.818 144.142 133.055 144.598 133.219C145.072 133.365 145.609 133.438 146.211 133.438C147.596 133.438 148.681 133.146 149.465 132.562C150.249 131.979 150.796 131.186 151.105 130.184C151.434 129.181 151.598 128.051 151.598 126.793ZM180.637 110.414V116.812H162.809V110.414H180.637ZM166.555 103.059H175.77V130.348C175.77 131.132 175.861 131.742 176.043 132.18C176.225 132.599 176.535 132.9 176.973 133.082C177.428 133.246 178.03 133.328 178.777 133.328C179.306 133.328 179.743 133.319 180.09 133.301C180.436 133.264 180.764 133.219 181.074 133.164V139.754C180.29 140.009 179.47 140.201 178.613 140.328C177.757 140.474 176.845 140.547 175.879 140.547C173.91 140.547 172.224 140.237 170.82 139.617C169.435 138.997 168.378 138.022 167.648 136.691C166.919 135.361 166.555 133.629 166.555 131.496V103.059ZM182.332 125.508V124.934C182.332 122.764 182.642 120.768 183.262 118.945C183.882 117.104 184.793 115.509 185.996 114.16C187.199 112.811 188.685 111.763 190.453 111.016C192.221 110.25 194.263 109.867 196.578 109.867C198.911 109.867 200.962 110.25 202.73 111.016C204.517 111.763 206.012 112.811 207.215 114.16C208.418 115.509 209.329 117.104 209.949 118.945C210.569 120.768 210.879 122.764 210.879 124.934V125.508C210.879 127.659 210.569 129.655 209.949 131.496C209.329 133.319 208.418 134.914 207.215 136.281C206.012 137.63 204.526 138.678 202.758 139.426C200.99 140.173 198.948 140.547 196.633 140.547C194.318 140.547 192.267 140.173 190.48 139.426C188.694 138.678 187.199 137.63 185.996 136.281C184.793 134.914 183.882 133.319 183.262 131.496C182.642 129.655 182.332 127.659 182.332 125.508ZM191.547 124.934V125.508C191.547 126.62 191.629 127.659 191.793 128.625C191.957 129.591 192.23 130.439 192.613 131.168C192.996 131.879 193.516 132.435 194.172 132.836C194.828 133.237 195.648 133.438 196.633 133.438C197.599 133.438 198.401 133.237 199.039 132.836C199.695 132.435 200.215 131.879 200.598 131.168C200.98 130.439 201.254 129.591 201.418 128.625C201.582 127.659 201.664 126.62 201.664 125.508V124.934C201.664 123.858 201.582 122.846 201.418 121.898C201.254 120.932 200.98 120.085 200.598 119.355C200.215 118.608 199.695 118.025 199.039 117.605C198.383 117.186 197.562 116.977 196.578 116.977C195.612 116.977 194.801 117.186 194.145 117.605C193.507 118.025 192.996 118.608 192.613 119.355C192.23 120.085 191.957 120.932 191.793 121.898C191.629 122.846 191.547 123.858 191.547 124.934ZM235.926 129.418C235.926 128.798 235.835 128.242 235.652 127.75C235.47 127.24 235.133 126.766 234.641 126.328C234.148 125.891 233.438 125.453 232.508 125.016C231.596 124.56 230.393 124.086 228.898 123.594C227.148 123.01 225.462 122.354 223.84 121.625C222.217 120.878 220.768 120.012 219.492 119.027C218.216 118.025 217.204 116.858 216.457 115.527C215.71 114.178 215.336 112.611 215.336 110.824C215.336 109.111 215.719 107.57 216.484 106.203C217.25 104.818 218.316 103.642 219.684 102.676C221.069 101.691 222.691 100.944 224.551 100.434C226.41 99.9049 228.443 99.6406 230.648 99.6406C233.565 99.6406 236.135 100.151 238.359 101.172C240.602 102.174 242.352 103.605 243.609 105.465C244.885 107.306 245.523 109.484 245.523 112H235.98C235.98 110.997 235.771 110.113 235.352 109.348C234.951 108.582 234.34 107.98 233.52 107.543C232.699 107.105 231.669 106.887 230.43 106.887C229.227 106.887 228.215 107.069 227.395 107.434C226.574 107.798 225.954 108.29 225.535 108.91C225.116 109.512 224.906 110.177 224.906 110.906C224.906 111.508 225.07 112.055 225.398 112.547C225.745 113.021 226.228 113.467 226.848 113.887C227.486 114.306 228.251 114.707 229.145 115.09C230.056 115.473 231.077 115.846 232.207 116.211C234.322 116.885 236.199 117.642 237.84 118.48C239.499 119.301 240.893 120.24 242.023 121.297C243.172 122.336 244.038 123.521 244.621 124.852C245.223 126.182 245.523 127.686 245.523 129.363C245.523 131.15 245.177 132.736 244.484 134.121C243.792 135.507 242.798 136.682 241.504 137.648C240.21 138.596 238.66 139.316 236.855 139.809C235.051 140.301 233.036 140.547 230.812 140.547C228.771 140.547 226.757 140.292 224.77 139.781C222.801 139.253 221.014 138.451 219.41 137.375C217.806 136.281 216.521 134.887 215.555 133.191C214.607 131.478 214.133 129.445 214.133 127.094H223.758C223.758 128.26 223.913 129.245 224.223 130.047C224.533 130.849 224.988 131.496 225.59 131.988C226.191 132.462 226.93 132.809 227.805 133.027C228.68 133.228 229.682 133.328 230.812 133.328C232.034 133.328 233.018 133.155 233.766 132.809C234.513 132.444 235.06 131.97 235.406 131.387C235.753 130.785 235.926 130.129 235.926 129.418ZM259.113 136.527L266.77 110.414H276.668L264.773 144.402C264.518 145.15 264.181 145.952 263.762 146.809C263.342 147.684 262.768 148.513 262.039 149.297C261.31 150.081 260.371 150.719 259.223 151.211C258.092 151.703 256.689 151.949 255.012 151.949C254.118 151.949 253.462 151.904 253.043 151.812C252.642 151.74 252.022 151.603 251.184 151.402V144.812C251.421 144.812 251.621 144.812 251.785 144.812C251.967 144.812 252.168 144.812 252.387 144.812C253.371 144.812 254.155 144.712 254.738 144.512C255.34 144.311 255.796 144.02 256.105 143.637C256.434 143.254 256.689 142.789 256.871 142.242L259.113 136.527ZM257.172 110.414L262.996 131.113L264.008 140.875H257.828L247.301 110.414H257.172ZM288.125 116.73V140H278.91V110.414H287.551L288.125 116.73ZM287.031 124.195L284.871 124.25C284.871 121.99 285.145 119.975 285.691 118.207C286.238 116.421 287.013 114.908 288.016 113.668C289.018 112.428 290.212 111.49 291.598 110.852C293.001 110.195 294.56 109.867 296.273 109.867C297.641 109.867 298.889 110.068 300.02 110.469C301.168 110.87 302.152 111.517 302.973 112.41C303.811 113.303 304.449 114.488 304.887 115.965C305.342 117.423 305.57 119.228 305.57 121.379V140H296.301V121.352C296.301 120.167 296.137 119.264 295.809 118.645C295.48 118.007 295.007 117.569 294.387 117.332C293.767 117.095 293.01 116.977 292.117 116.977C291.169 116.977 290.367 117.159 289.711 117.523C289.055 117.888 288.526 118.398 288.125 119.055C287.742 119.693 287.46 120.449 287.277 121.324C287.113 122.199 287.031 123.156 287.031 124.195ZM323.18 133.438C324.036 133.438 324.766 133.283 325.367 132.973C325.987 132.645 326.452 132.189 326.762 131.605C327.09 131.004 327.245 130.284 327.227 129.445H335.895C335.913 131.669 335.366 133.62 334.254 135.297C333.16 136.956 331.665 138.25 329.77 139.18C327.892 140.091 325.768 140.547 323.398 140.547C321.083 140.547 319.06 140.173 317.328 139.426C315.596 138.66 314.147 137.603 312.98 136.254C311.832 134.887 310.966 133.292 310.383 131.469C309.818 129.646 309.535 127.668 309.535 125.535V124.906C309.535 122.773 309.818 120.796 310.383 118.973C310.966 117.132 311.832 115.536 312.98 114.188C314.147 112.82 315.587 111.763 317.301 111.016C319.033 110.25 321.047 109.867 323.344 109.867C325.805 109.867 327.974 110.332 329.852 111.262C331.747 112.191 333.233 113.54 334.309 115.309C335.384 117.077 335.913 119.219 335.895 121.734H327.227C327.245 120.841 327.108 120.039 326.816 119.328C326.525 118.617 326.069 118.052 325.449 117.633C324.848 117.195 324.073 116.977 323.125 116.977C322.177 116.977 321.411 117.186 320.828 117.605C320.245 118.025 319.798 118.608 319.488 119.355C319.197 120.085 318.996 120.923 318.887 121.871C318.796 122.819 318.75 123.831 318.75 124.906V125.535C318.75 126.629 318.796 127.659 318.887 128.625C318.996 129.573 319.206 130.411 319.516 131.141C319.826 131.852 320.272 132.417 320.855 132.836C321.439 133.237 322.214 133.438 323.18 133.438Z" fill="black"/>
<rect x="93" y="178" width="917" height="77" rx="10" fill="#D3D3D3"/>
<rect x="111" y="196" width="148" height="41" rx="3" fill="#424242"/>
<rect x="111" y="196" width="148" height="41" rx="3" stroke="#424242" stroke-width="4"/>
<path d="M134.234 210.203H139.271C140.255 210.203 141.11 210.35 141.837 210.643C142.563 210.936 143.123 211.369 143.516 211.943C143.914 212.518 144.113 213.227 144.113 214.07C144.113 214.803 143.999 215.415 143.771 215.907C143.542 216.399 143.223 216.807 142.812 217.129C142.408 217.445 141.937 217.706 141.397 217.911L140.387 218.482H136.159L136.142 216.101H139.271C139.663 216.101 139.988 216.03 140.246 215.89C140.504 215.749 140.697 215.55 140.826 215.292C140.961 215.028 141.028 214.715 141.028 214.352C141.028 213.982 140.961 213.666 140.826 213.402C140.691 213.139 140.492 212.937 140.229 212.796C139.971 212.655 139.651 212.585 139.271 212.585H137.319V223H134.234V210.203ZM141.239 223L138.409 217.34L141.679 217.322L144.544 222.868V223H141.239ZM150.441 223.176C149.668 223.176 148.977 223.056 148.367 222.815C147.758 222.569 147.242 222.232 146.82 221.805C146.404 221.377 146.085 220.885 145.862 220.328C145.646 219.771 145.537 219.183 145.537 218.562V218.228C145.537 217.53 145.634 216.886 145.827 216.294C146.021 215.696 146.308 215.175 146.688 214.729C147.069 214.284 147.547 213.938 148.121 213.692C148.695 213.44 149.363 213.314 150.125 213.314C150.799 213.314 151.402 213.423 151.936 213.64C152.469 213.856 152.92 214.167 153.289 214.571C153.664 214.976 153.948 215.465 154.142 216.039C154.341 216.613 154.44 217.258 154.44 217.973V219.177H146.671V217.322H151.549V217.094C151.555 216.777 151.499 216.508 151.382 216.285C151.271 216.062 151.106 215.893 150.89 215.775C150.673 215.658 150.409 215.6 150.099 215.6C149.776 215.6 149.51 215.67 149.299 215.811C149.094 215.951 148.933 216.145 148.815 216.391C148.704 216.631 148.625 216.909 148.578 217.226C148.531 217.542 148.508 217.876 148.508 218.228V218.562C148.508 218.913 148.555 219.232 148.648 219.52C148.748 219.807 148.889 220.053 149.07 220.258C149.258 220.457 149.48 220.612 149.738 220.724C150.002 220.835 150.301 220.891 150.635 220.891C151.039 220.891 151.438 220.814 151.83 220.662C152.223 220.51 152.56 220.258 152.841 219.906L154.186 221.506C153.992 221.781 153.717 222.048 153.359 222.306C153.008 222.563 152.586 222.774 152.094 222.938C151.602 223.097 151.051 223.176 150.441 223.176ZM160.584 220.609V216.689C160.584 216.42 160.546 216.188 160.47 215.995C160.394 215.802 160.273 215.652 160.109 215.547C159.945 215.436 159.726 215.38 159.45 215.38C159.228 215.38 159.037 215.418 158.879 215.494C158.721 215.57 158.601 215.685 158.519 215.837C158.437 215.989 158.396 216.183 158.396 216.417H155.434C155.434 215.978 155.53 215.57 155.724 215.195C155.923 214.814 156.204 214.483 156.567 214.202C156.937 213.921 157.376 213.704 157.886 213.552C158.401 213.394 158.976 213.314 159.608 213.314C160.364 213.314 161.038 213.44 161.63 213.692C162.228 213.944 162.699 214.322 163.045 214.826C163.391 215.324 163.563 215.951 163.563 216.707V220.601C163.563 221.222 163.599 221.693 163.669 222.016C163.739 222.332 163.839 222.61 163.968 222.851V223H160.997C160.856 222.707 160.751 222.35 160.681 221.928C160.616 221.5 160.584 221.061 160.584 220.609ZM160.944 217.19L160.962 218.772H159.652C159.377 218.772 159.143 218.811 158.949 218.887C158.762 218.963 158.609 219.068 158.492 219.203C158.381 219.332 158.299 219.479 158.246 219.643C158.199 219.807 158.176 219.979 158.176 220.161C158.176 220.337 158.217 220.495 158.299 220.636C158.387 220.771 158.504 220.876 158.65 220.952C158.797 221.028 158.961 221.066 159.143 221.066C159.471 221.066 159.749 221.005 159.978 220.882C160.212 220.753 160.391 220.598 160.514 220.416C160.637 220.234 160.698 220.064 160.698 219.906L161.349 221.119C161.231 221.354 161.097 221.591 160.944 221.831C160.798 222.071 160.613 222.294 160.391 222.499C160.174 222.698 159.907 222.862 159.591 222.991C159.274 223.114 158.891 223.176 158.439 223.176C157.854 223.176 157.314 223.056 156.822 222.815C156.336 222.575 155.946 222.241 155.653 221.813C155.36 221.38 155.214 220.882 155.214 220.319C155.214 219.827 155.302 219.388 155.478 219.001C155.659 218.614 155.932 218.286 156.295 218.017C156.658 217.747 157.121 217.542 157.684 217.401C158.246 217.261 158.908 217.19 159.67 217.19H160.944ZM169.224 220.891C169.499 220.891 169.733 220.841 169.927 220.741C170.126 220.636 170.275 220.489 170.375 220.302C170.48 220.108 170.53 219.877 170.524 219.607H173.311C173.316 220.322 173.141 220.949 172.783 221.488C172.432 222.021 171.951 222.438 171.342 222.736C170.738 223.029 170.056 223.176 169.294 223.176C168.55 223.176 167.899 223.056 167.343 222.815C166.786 222.569 166.32 222.229 165.945 221.796C165.576 221.356 165.298 220.844 165.11 220.258C164.929 219.672 164.838 219.036 164.838 218.351V218.148C164.838 217.463 164.929 216.827 165.11 216.241C165.298 215.649 165.576 215.137 165.945 214.703C166.32 214.264 166.783 213.924 167.334 213.684C167.891 213.438 168.538 213.314 169.276 213.314C170.067 213.314 170.765 213.464 171.368 213.763C171.978 214.062 172.455 214.495 172.801 215.063C173.146 215.632 173.316 216.32 173.311 217.129H170.524C170.53 216.842 170.486 216.584 170.393 216.355C170.299 216.127 170.152 215.945 169.953 215.811C169.76 215.67 169.511 215.6 169.206 215.6C168.901 215.6 168.655 215.667 168.468 215.802C168.28 215.937 168.137 216.124 168.037 216.364C167.943 216.599 167.879 216.868 167.844 217.173C167.814 217.478 167.8 217.803 167.8 218.148V218.351C167.8 218.702 167.814 219.033 167.844 219.344C167.879 219.648 167.946 219.918 168.046 220.152C168.146 220.381 168.289 220.562 168.477 220.697C168.664 220.826 168.913 220.891 169.224 220.891ZM179.586 213.49V215.547H173.855V213.49H179.586ZM175.06 211.126H178.021V219.897C178.021 220.149 178.051 220.346 178.109 220.486C178.168 220.621 178.268 220.718 178.408 220.776C178.555 220.829 178.748 220.855 178.988 220.855C179.158 220.855 179.299 220.853 179.41 220.847C179.521 220.835 179.627 220.82 179.727 220.803V222.921C179.475 223.003 179.211 223.064 178.936 223.105C178.66 223.152 178.367 223.176 178.057 223.176C177.424 223.176 176.882 223.076 176.431 222.877C175.985 222.678 175.646 222.364 175.411 221.937C175.177 221.509 175.06 220.952 175.06 220.267V211.126ZM196.074 210.203V223H192.998L188.472 215.037V223H185.387V210.203H188.472L192.998 218.166V210.203H196.074ZM202.824 220.609V216.689C202.824 216.42 202.786 216.188 202.71 215.995C202.634 215.802 202.514 215.652 202.35 215.547C202.186 215.436 201.966 215.38 201.69 215.38C201.468 215.38 201.277 215.418 201.119 215.494C200.961 215.57 200.841 215.685 200.759 215.837C200.677 215.989 200.636 216.183 200.636 216.417H197.674C197.674 215.978 197.771 215.57 197.964 215.195C198.163 214.814 198.444 214.483 198.808 214.202C199.177 213.921 199.616 213.704 200.126 213.552C200.642 213.394 201.216 213.314 201.849 213.314C202.604 213.314 203.278 213.44 203.87 213.692C204.468 213.944 204.939 214.322 205.285 214.826C205.631 215.324 205.804 215.951 205.804 216.707V220.601C205.804 221.222 205.839 221.693 205.909 222.016C205.979 222.332 206.079 222.61 206.208 222.851V223H203.237C203.097 222.707 202.991 222.35 202.921 221.928C202.856 221.5 202.824 221.061 202.824 220.609ZM203.185 217.19L203.202 218.772H201.893C201.617 218.772 201.383 218.811 201.189 218.887C201.002 218.963 200.85 219.068 200.732 219.203C200.621 219.332 200.539 219.479 200.486 219.643C200.439 219.807 200.416 219.979 200.416 220.161C200.416 220.337 200.457 220.495 200.539 220.636C200.627 220.771 200.744 220.876 200.891 220.952C201.037 221.028 201.201 221.066 201.383 221.066C201.711 221.066 201.989 221.005 202.218 220.882C202.452 220.753 202.631 220.598 202.754 220.416C202.877 220.234 202.938 220.064 202.938 219.906L203.589 221.119C203.472 221.354 203.337 221.591 203.185 221.831C203.038 222.071 202.854 222.294 202.631 222.499C202.414 222.698 202.147 222.862 201.831 222.991C201.515 223.114 201.131 223.176 200.68 223.176C200.094 223.176 199.555 223.056 199.062 222.815C198.576 222.575 198.187 222.241 197.894 221.813C197.601 221.38 197.454 220.882 197.454 220.319C197.454 219.827 197.542 219.388 197.718 219.001C197.899 218.614 198.172 218.286 198.535 218.017C198.898 217.747 199.361 217.542 199.924 217.401C200.486 217.261 201.148 217.19 201.91 217.19H203.185ZM212.457 213.49V215.547H206.727V213.49H212.457ZM207.931 211.126H210.893V219.897C210.893 220.149 210.922 220.346 210.98 220.486C211.039 220.621 211.139 220.718 211.279 220.776C211.426 220.829 211.619 220.855 211.859 220.855C212.029 220.855 212.17 220.853 212.281 220.847C212.393 220.835 212.498 220.82 212.598 220.803V222.921C212.346 223.003 212.082 223.064 211.807 223.105C211.531 223.152 211.238 223.176 210.928 223.176C210.295 223.176 209.753 223.076 209.302 222.877C208.856 222.678 208.517 222.364 208.282 221.937C208.048 221.509 207.931 220.952 207.931 220.267V211.126ZM216.764 213.49V223H213.793V213.49H216.764ZM213.617 211.038C213.617 210.616 213.77 210.271 214.074 210.001C214.379 209.731 214.774 209.597 215.261 209.597C215.747 209.597 216.143 209.731 216.447 210.001C216.752 210.271 216.904 210.616 216.904 211.038C216.904 211.46 216.752 211.806 216.447 212.075C216.143 212.345 215.747 212.479 215.261 212.479C214.774 212.479 214.379 212.345 214.074 212.075C213.77 211.806 213.617 211.46 213.617 211.038ZM222.02 220.97L223.892 213.49H227.012L223.9 223H222.055L222.02 220.97ZM220.912 213.49L222.758 220.97L222.74 223H220.886L217.783 213.49H220.912ZM232.373 223.176C231.6 223.176 230.908 223.056 230.299 222.815C229.689 222.569 229.174 222.232 228.752 221.805C228.336 221.377 228.017 220.885 227.794 220.328C227.577 219.771 227.469 219.183 227.469 218.562V218.228C227.469 217.53 227.565 216.886 227.759 216.294C227.952 215.696 228.239 215.175 228.62 214.729C229.001 214.284 229.479 213.938 230.053 213.692C230.627 213.44 231.295 213.314 232.057 213.314C232.73 213.314 233.334 213.423 233.867 213.64C234.4 213.856 234.852 214.167 235.221 214.571C235.596 214.976 235.88 215.465 236.073 216.039C236.272 216.613 236.372 217.258 236.372 217.973V219.177H228.603V217.322H233.48V217.094C233.486 216.777 233.431 216.508 233.313 216.285C233.202 216.062 233.038 215.893 232.821 215.775C232.604 215.658 232.341 215.6 232.03 215.6C231.708 215.6 231.441 215.67 231.23 215.811C231.025 215.951 230.864 216.145 230.747 216.391C230.636 216.631 230.557 216.909 230.51 217.226C230.463 217.542 230.439 217.876 230.439 218.228V218.562C230.439 218.913 230.486 219.232 230.58 219.52C230.68 219.807 230.82 220.053 231.002 220.258C231.189 220.457 231.412 220.612 231.67 220.724C231.934 220.835 232.232 220.891 232.566 220.891C232.971 220.891 233.369 220.814 233.762 220.662C234.154 220.51 234.491 220.258 234.772 219.906L236.117 221.506C235.924 221.781 235.648 222.048 235.291 222.306C234.939 222.563 234.518 222.774 234.025 222.938C233.533 223.097 232.982 223.176 232.373 223.176Z" fill="white"/>
<rect x="279" y="196" width="104" height="41" rx="3" fill="#424242"/>
<rect x="279" y="196" width="104" height="41" rx="3" stroke="#424242" stroke-width="4"/>
<path d="M310.812 220.627V223H304.343V220.627H310.812ZM305.441 210.203V223H302.356V210.203H305.441ZM316.911 220.609V216.689C316.911 216.42 316.873 216.188 316.797 215.995C316.721 215.802 316.601 215.652 316.437 215.547C316.272 215.436 316.053 215.38 315.777 215.38C315.555 215.38 315.364 215.418 315.206 215.494C315.048 215.57 314.928 215.685 314.846 215.837C314.764 215.989 314.723 216.183 314.723 216.417H311.761C311.761 215.978 311.857 215.57 312.051 215.195C312.25 214.814 312.531 214.483 312.895 214.202C313.264 213.921 313.703 213.704 314.213 213.552C314.729 213.394 315.303 213.314 315.936 213.314C316.691 213.314 317.365 213.44 317.957 213.692C318.555 213.944 319.026 214.322 319.372 214.826C319.718 215.324 319.891 215.951 319.891 216.707V220.601C319.891 221.222 319.926 221.693 319.996 222.016C320.066 222.332 320.166 222.61 320.295 222.851V223H317.324C317.184 222.707 317.078 222.35 317.008 221.928C316.943 221.5 316.911 221.061 316.911 220.609ZM317.271 217.19L317.289 218.772H315.979C315.704 218.772 315.47 218.811 315.276 218.887C315.089 218.963 314.937 219.068 314.819 219.203C314.708 219.332 314.626 219.479 314.573 219.643C314.526 219.807 314.503 219.979 314.503 220.161C314.503 220.337 314.544 220.495 314.626 220.636C314.714 220.771 314.831 220.876 314.978 220.952C315.124 221.028 315.288 221.066 315.47 221.066C315.798 221.066 316.076 221.005 316.305 220.882C316.539 220.753 316.718 220.598 316.841 220.416C316.964 220.234 317.025 220.064 317.025 219.906L317.676 221.119C317.559 221.354 317.424 221.591 317.271 221.831C317.125 222.071 316.94 222.294 316.718 222.499C316.501 222.698 316.234 222.862 315.918 222.991C315.602 223.114 315.218 223.176 314.767 223.176C314.181 223.176 313.642 223.056 313.149 222.815C312.663 222.575 312.273 222.241 311.98 221.813C311.688 221.38 311.541 220.882 311.541 220.319C311.541 219.827 311.629 219.388 311.805 219.001C311.986 218.614 312.259 218.286 312.622 218.017C312.985 217.747 313.448 217.542 314.011 217.401C314.573 217.261 315.235 217.19 315.997 217.19H317.271ZM324.522 215.846V223H321.561V213.49H324.329L324.522 215.846ZM327.335 213.42L327.282 216.171C327.165 216.159 327.007 216.145 326.808 216.127C326.608 216.109 326.441 216.101 326.307 216.101C325.961 216.101 325.662 216.142 325.41 216.224C325.164 216.3 324.959 216.417 324.795 216.575C324.637 216.728 324.52 216.921 324.443 217.155C324.373 217.39 324.341 217.662 324.347 217.973L323.811 217.621C323.811 216.982 323.872 216.402 323.995 215.881C324.124 215.354 324.306 214.899 324.54 214.519C324.774 214.132 325.059 213.836 325.393 213.631C325.727 213.42 326.102 213.314 326.518 213.314C326.664 213.314 326.808 213.323 326.948 213.341C327.095 213.358 327.224 213.385 327.335 213.42ZM333.03 220.609V216.689C333.03 216.42 332.992 216.188 332.916 215.995C332.84 215.802 332.72 215.652 332.556 215.547C332.392 215.436 332.172 215.38 331.896 215.38C331.674 215.38 331.483 215.418 331.325 215.494C331.167 215.57 331.047 215.685 330.965 215.837C330.883 215.989 330.842 216.183 330.842 216.417H327.88C327.88 215.978 327.977 215.57 328.17 215.195C328.369 214.814 328.65 214.483 329.014 214.202C329.383 213.921 329.822 213.704 330.332 213.552C330.848 213.394 331.422 213.314 332.055 213.314C332.811 213.314 333.484 213.44 334.076 213.692C334.674 213.944 335.146 214.322 335.491 214.826C335.837 215.324 336.01 215.951 336.01 216.707V220.601C336.01 221.222 336.045 221.693 336.115 222.016C336.186 222.332 336.285 222.61 336.414 222.851V223H333.443C333.303 222.707 333.197 222.35 333.127 221.928C333.062 221.5 333.03 221.061 333.03 220.609ZM333.391 217.19L333.408 218.772H332.099C331.823 218.772 331.589 218.811 331.396 218.887C331.208 218.963 331.056 219.068 330.938 219.203C330.827 219.332 330.745 219.479 330.692 219.643C330.646 219.807 330.622 219.979 330.622 220.161C330.622 220.337 330.663 220.495 330.745 220.636C330.833 220.771 330.95 220.876 331.097 220.952C331.243 221.028 331.407 221.066 331.589 221.066C331.917 221.066 332.195 221.005 332.424 220.882C332.658 220.753 332.837 220.598 332.96 220.416C333.083 220.234 333.145 220.064 333.145 219.906L333.795 221.119C333.678 221.354 333.543 221.591 333.391 221.831C333.244 222.071 333.06 222.294 332.837 222.499C332.62 222.698 332.354 222.862 332.037 222.991C331.721 223.114 331.337 223.176 330.886 223.176C330.3 223.176 329.761 223.056 329.269 222.815C328.782 222.575 328.393 222.241 328.1 221.813C327.807 221.38 327.66 220.882 327.66 220.319C327.66 219.827 327.748 219.388 327.924 219.001C328.105 218.614 328.378 218.286 328.741 218.017C329.104 217.747 329.567 217.542 330.13 217.401C330.692 217.261 331.354 217.19 332.116 217.19H333.391ZM340.94 220.97L342.812 213.49H345.933L342.821 223H340.976L340.94 220.97ZM339.833 213.49L341.679 220.97L341.661 223H339.807L336.704 213.49H339.833ZM351.294 223.176C350.521 223.176 349.829 223.056 349.22 222.815C348.61 222.569 348.095 222.232 347.673 221.805C347.257 221.377 346.938 220.885 346.715 220.328C346.498 219.771 346.39 219.183 346.39 218.562V218.228C346.39 217.53 346.486 216.886 346.68 216.294C346.873 215.696 347.16 215.175 347.541 214.729C347.922 214.284 348.399 213.938 348.974 213.692C349.548 213.44 350.216 213.314 350.978 213.314C351.651 213.314 352.255 213.423 352.788 213.64C353.321 213.856 353.772 214.167 354.142 214.571C354.517 214.976 354.801 215.465 354.994 216.039C355.193 216.613 355.293 217.258 355.293 217.973V219.177H347.523V217.322H352.401V217.094C352.407 216.777 352.352 216.508 352.234 216.285C352.123 216.062 351.959 215.893 351.742 215.775C351.525 215.658 351.262 215.6 350.951 215.6C350.629 215.6 350.362 215.67 350.151 215.811C349.946 215.951 349.785 216.145 349.668 216.391C349.557 216.631 349.478 216.909 349.431 217.226C349.384 217.542 349.36 217.876 349.36 218.228V218.562C349.36 218.913 349.407 219.232 349.501 219.52C349.601 219.807 349.741 220.053 349.923 220.258C350.11 220.457 350.333 220.612 350.591 220.724C350.854 220.835 351.153 220.891 351.487 220.891C351.892 220.891 352.29 220.814 352.683 220.662C353.075 220.51 353.412 220.258 353.693 219.906L355.038 221.506C354.845 221.781 354.569 222.048 354.212 222.306C353.86 222.563 353.438 222.774 352.946 222.938C352.454 223.097 351.903 223.176 351.294 223.176ZM359.626 209.5V223H356.655V209.5H359.626Z" fill="white"/>
<rect x="403" y="196" width="91" height="41" rx="3" fill="#424242"/>
<rect x="403" y="196" width="91" height="41" rx="3" stroke="#424242" stroke-width="4"/>
<path d="M426.141 210.203H431.177C432.161 210.203 433.017 210.35 433.743 210.643C434.47 210.936 435.029 211.369 435.422 211.943C435.82 212.518 436.02 213.227 436.02 214.07C436.02 214.803 435.905 215.415 435.677 215.907C435.448 216.399 435.129 216.807 434.719 217.129C434.314 217.445 433.843 217.706 433.304 217.911L432.293 218.482H428.065L428.048 216.101H431.177C431.569 216.101 431.895 216.03 432.152 215.89C432.41 215.749 432.604 215.55 432.732 215.292C432.867 215.028 432.935 214.715 432.935 214.352C432.935 213.982 432.867 213.666 432.732 213.402C432.598 213.139 432.398 212.937 432.135 212.796C431.877 212.655 431.558 212.585 431.177 212.585H429.226V223H426.141V210.203ZM433.146 223L430.315 217.34L433.585 217.322L436.45 222.868V223H433.146ZM442.348 223.176C441.574 223.176 440.883 223.056 440.273 222.815C439.664 222.569 439.148 222.232 438.727 221.805C438.311 221.377 437.991 220.885 437.769 220.328C437.552 219.771 437.443 219.183 437.443 218.562V218.228C437.443 217.53 437.54 216.886 437.733 216.294C437.927 215.696 438.214 215.175 438.595 214.729C438.976 214.284 439.453 213.938 440.027 213.692C440.602 213.44 441.27 213.314 442.031 213.314C442.705 213.314 443.309 213.423 443.842 213.64C444.375 213.856 444.826 214.167 445.195 214.571C445.57 214.976 445.854 215.465 446.048 216.039C446.247 216.613 446.347 217.258 446.347 217.973V219.177H438.577V217.322H443.455V217.094C443.461 216.777 443.405 216.508 443.288 216.285C443.177 216.062 443.013 215.893 442.796 215.775C442.579 215.658 442.315 215.6 442.005 215.6C441.683 215.6 441.416 215.67 441.205 215.811C441 215.951 440.839 216.145 440.722 216.391C440.61 216.631 440.531 216.909 440.484 217.226C440.438 217.542 440.414 217.876 440.414 218.228V218.562C440.414 218.913 440.461 219.232 440.555 219.52C440.654 219.807 440.795 220.053 440.977 220.258C441.164 220.457 441.387 220.612 441.645 220.724C441.908 220.835 442.207 220.891 442.541 220.891C442.945 220.891 443.344 220.814 443.736 220.662C444.129 220.51 444.466 220.258 444.747 219.906L446.092 221.506C445.898 221.781 445.623 222.048 445.266 222.306C444.914 222.563 444.492 222.774 444 222.938C443.508 223.097 442.957 223.176 442.348 223.176ZM452.49 220.609V216.689C452.49 216.42 452.452 216.188 452.376 215.995C452.3 215.802 452.18 215.652 452.016 215.547C451.852 215.436 451.632 215.38 451.356 215.38C451.134 215.38 450.943 215.418 450.785 215.494C450.627 215.57 450.507 215.685 450.425 215.837C450.343 215.989 450.302 216.183 450.302 216.417H447.34C447.34 215.978 447.437 215.57 447.63 215.195C447.829 214.814 448.11 214.483 448.474 214.202C448.843 213.921 449.282 213.704 449.792 213.552C450.308 213.394 450.882 213.314 451.515 213.314C452.271 213.314 452.944 213.44 453.536 213.692C454.134 213.944 454.605 214.322 454.951 214.826C455.297 215.324 455.47 215.951 455.47 216.707V220.601C455.47 221.222 455.505 221.693 455.575 222.016C455.646 222.332 455.745 222.61 455.874 222.851V223H452.903C452.763 222.707 452.657 222.35 452.587 221.928C452.522 221.5 452.49 221.061 452.49 220.609ZM452.851 217.19L452.868 218.772H451.559C451.283 218.772 451.049 218.811 450.855 218.887C450.668 218.963 450.516 219.068 450.398 219.203C450.287 219.332 450.205 219.479 450.152 219.643C450.105 219.807 450.082 219.979 450.082 220.161C450.082 220.337 450.123 220.495 450.205 220.636C450.293 220.771 450.41 220.876 450.557 220.952C450.703 221.028 450.867 221.066 451.049 221.066C451.377 221.066 451.655 221.005 451.884 220.882C452.118 220.753 452.297 220.598 452.42 220.416C452.543 220.234 452.604 220.064 452.604 219.906L453.255 221.119C453.138 221.354 453.003 221.591 452.851 221.831C452.704 222.071 452.52 222.294 452.297 222.499C452.08 222.698 451.813 222.862 451.497 222.991C451.181 223.114 450.797 223.176 450.346 223.176C449.76 223.176 449.221 223.056 448.729 222.815C448.242 222.575 447.853 222.241 447.56 221.813C447.267 221.38 447.12 220.882 447.12 220.319C447.12 219.827 447.208 219.388 447.384 219.001C447.565 218.614 447.838 218.286 448.201 218.017C448.564 217.747 449.027 217.542 449.59 217.401C450.152 217.261 450.814 217.19 451.576 217.19H452.851ZM461.13 220.891C461.405 220.891 461.64 220.841 461.833 220.741C462.032 220.636 462.182 220.489 462.281 220.302C462.387 220.108 462.437 219.877 462.431 219.607H465.217C465.223 220.322 465.047 220.949 464.689 221.488C464.338 222.021 463.857 222.438 463.248 222.736C462.645 223.029 461.962 223.176 461.2 223.176C460.456 223.176 459.806 223.056 459.249 222.815C458.692 222.569 458.227 222.229 457.852 221.796C457.482 221.356 457.204 220.844 457.017 220.258C456.835 219.672 456.744 219.036 456.744 218.351V218.148C456.744 217.463 456.835 216.827 457.017 216.241C457.204 215.649 457.482 215.137 457.852 214.703C458.227 214.264 458.689 213.924 459.24 213.684C459.797 213.438 460.444 213.314 461.183 213.314C461.974 213.314 462.671 213.464 463.274 213.763C463.884 214.062 464.361 214.495 464.707 215.063C465.053 215.632 465.223 216.32 465.217 217.129H462.431C462.437 216.842 462.393 216.584 462.299 216.355C462.205 216.127 462.059 215.945 461.859 215.811C461.666 215.67 461.417 215.6 461.112 215.6C460.808 215.6 460.562 215.667 460.374 215.802C460.187 215.937 460.043 216.124 459.943 216.364C459.85 216.599 459.785 216.868 459.75 217.173C459.721 217.478 459.706 217.803 459.706 218.148V218.351C459.706 218.702 459.721 219.033 459.75 219.344C459.785 219.648 459.853 219.918 459.952 220.152C460.052 220.381 460.195 220.562 460.383 220.697C460.57 220.826 460.819 220.891 461.13 220.891ZM471.492 213.49V215.547H465.762V213.49H471.492ZM466.966 211.126H469.928V219.897C469.928 220.149 469.957 220.346 470.016 220.486C470.074 220.621 470.174 220.718 470.314 220.776C470.461 220.829 470.654 220.855 470.895 220.855C471.064 220.855 471.205 220.853 471.316 220.847C471.428 220.835 471.533 220.82 471.633 220.803V222.921C471.381 223.003 471.117 223.064 470.842 223.105C470.566 223.152 470.273 223.176 469.963 223.176C469.33 223.176 468.788 223.076 468.337 222.877C467.892 222.678 467.552 222.364 467.317 221.937C467.083 221.509 466.966 220.952 466.966 220.267V211.126Z" fill="white"/>
<rect x="514" y="196" width="83" height="41" rx="3" fill="#424242"/>
<rect x="514" y="196" width="83" height="41" rx="3" stroke="#424242" stroke-width="4"/>
<path d="M542.431 218.983V210.203H545.507V218.983C545.507 219.839 545.311 220.58 544.918 221.207C544.531 221.834 544.004 222.32 543.336 222.666C542.674 223.006 541.93 223.176 541.104 223.176C540.248 223.176 539.486 223.032 538.818 222.745C538.156 222.458 537.635 222.016 537.254 221.418C536.879 220.82 536.691 220.059 536.691 219.133H539.785C539.785 219.566 539.835 219.906 539.935 220.152C540.034 220.393 540.181 220.562 540.374 220.662C540.573 220.756 540.816 220.803 541.104 220.803C541.385 220.803 541.622 220.732 541.815 220.592C542.015 220.445 542.167 220.237 542.272 219.968C542.378 219.692 542.431 219.364 542.431 218.983ZM552.266 220.609V216.689C552.266 216.42 552.228 216.188 552.151 215.995C552.075 215.802 551.955 215.652 551.791 215.547C551.627 215.436 551.407 215.38 551.132 215.38C550.909 215.38 550.719 215.418 550.561 215.494C550.402 215.57 550.282 215.685 550.2 215.837C550.118 215.989 550.077 216.183 550.077 216.417H547.115C547.115 215.978 547.212 215.57 547.405 215.195C547.604 214.814 547.886 214.483 548.249 214.202C548.618 213.921 549.058 213.704 549.567 213.552C550.083 213.394 550.657 213.314 551.29 213.314C552.046 213.314 552.72 213.44 553.312 213.692C553.909 213.944 554.381 214.322 554.727 214.826C555.072 215.324 555.245 215.951 555.245 216.707V220.601C555.245 221.222 555.28 221.693 555.351 222.016C555.421 222.332 555.521 222.61 555.649 222.851V223H552.679C552.538 222.707 552.433 222.35 552.362 221.928C552.298 221.5 552.266 221.061 552.266 220.609ZM552.626 217.19L552.644 218.772H551.334C551.059 218.772 550.824 218.811 550.631 218.887C550.443 218.963 550.291 219.068 550.174 219.203C550.062 219.332 549.98 219.479 549.928 219.643C549.881 219.807 549.857 219.979 549.857 220.161C549.857 220.337 549.898 220.495 549.98 220.636C550.068 220.771 550.186 220.876 550.332 220.952C550.479 221.028 550.643 221.066 550.824 221.066C551.152 221.066 551.431 221.005 551.659 220.882C551.894 220.753 552.072 220.598 552.195 220.416C552.318 220.234 552.38 220.064 552.38 219.906L553.03 221.119C552.913 221.354 552.778 221.591 552.626 221.831C552.479 222.071 552.295 222.294 552.072 222.499C551.855 222.698 551.589 222.862 551.272 222.991C550.956 223.114 550.572 223.176 550.121 223.176C549.535 223.176 548.996 223.056 548.504 222.815C548.018 222.575 547.628 222.241 547.335 221.813C547.042 221.38 546.896 220.882 546.896 220.319C546.896 219.827 546.983 219.388 547.159 219.001C547.341 218.614 547.613 218.286 547.977 218.017C548.34 217.747 548.803 217.542 549.365 217.401C549.928 217.261 550.59 217.19 551.352 217.19H552.626ZM560.176 220.97L562.048 213.49H565.168L562.057 223H560.211L560.176 220.97ZM559.068 213.49L560.914 220.97L560.896 223H559.042L555.939 213.49H559.068ZM570.846 220.609V216.689C570.846 216.42 570.808 216.188 570.731 215.995C570.655 215.802 570.535 215.652 570.371 215.547C570.207 215.436 569.987 215.38 569.712 215.38C569.489 215.38 569.299 215.418 569.141 215.494C568.982 215.57 568.862 215.685 568.78 215.837C568.698 215.989 568.657 216.183 568.657 216.417H565.695C565.695 215.978 565.792 215.57 565.985 215.195C566.185 214.814 566.466 214.483 566.829 214.202C567.198 213.921 567.638 213.704 568.147 213.552C568.663 213.394 569.237 213.314 569.87 213.314C570.626 213.314 571.3 213.44 571.892 213.692C572.489 213.944 572.961 214.322 573.307 214.826C573.652 215.324 573.825 215.951 573.825 216.707V220.601C573.825 221.222 573.86 221.693 573.931 222.016C574.001 222.332 574.101 222.61 574.229 222.851V223H571.259C571.118 222.707 571.013 222.35 570.942 221.928C570.878 221.5 570.846 221.061 570.846 220.609ZM571.206 217.19L571.224 218.772H569.914C569.639 218.772 569.404 218.811 569.211 218.887C569.023 218.963 568.871 219.068 568.754 219.203C568.643 219.332 568.561 219.479 568.508 219.643C568.461 219.807 568.438 219.979 568.438 220.161C568.438 220.337 568.479 220.495 568.561 220.636C568.648 220.771 568.766 220.876 568.912 220.952C569.059 221.028 569.223 221.066 569.404 221.066C569.732 221.066 570.011 221.005 570.239 220.882C570.474 220.753 570.652 220.598 570.775 220.416C570.898 220.234 570.96 220.064 570.96 219.906L571.61 221.119C571.493 221.354 571.358 221.591 571.206 221.831C571.06 222.071 570.875 222.294 570.652 222.499C570.436 222.698 570.169 222.862 569.853 222.991C569.536 223.114 569.152 223.176 568.701 223.176C568.115 223.176 567.576 223.056 567.084 222.815C566.598 222.575 566.208 222.241 565.915 221.813C565.622 221.38 565.476 220.882 565.476 220.319C565.476 219.827 565.563 219.388 565.739 219.001C565.921 218.614 566.193 218.286 566.557 218.017C566.92 217.747 567.383 217.542 567.945 217.401C568.508 217.261 569.17 217.19 569.932 217.19H571.206Z" fill="white"/>
<rect x="621" y="196" width="91" height="41" rx="3" fill="#424242"/>
<rect x="621" y="196" width="91" height="41" rx="3" stroke="#424242" stroke-width="4"/>
<path d="M655.004 216.347V216.865C655.004 217.844 654.866 218.723 654.591 219.502C654.321 220.275 653.938 220.938 653.439 221.488C652.941 222.033 652.353 222.452 651.673 222.745C650.993 223.032 650.243 223.176 649.423 223.176C648.597 223.176 647.841 223.032 647.155 222.745C646.476 222.452 645.884 222.033 645.38 221.488C644.882 220.938 644.495 220.275 644.22 219.502C643.95 218.723 643.815 217.844 643.815 216.865V216.347C643.815 215.368 643.95 214.489 644.22 213.71C644.495 212.931 644.879 212.269 645.371 211.724C645.869 211.173 646.458 210.754 647.138 210.467C647.823 210.174 648.579 210.027 649.405 210.027C650.226 210.027 650.976 210.174 651.655 210.467C652.341 210.754 652.933 211.173 653.431 211.724C653.929 212.269 654.315 212.931 654.591 213.71C654.866 214.489 655.004 215.368 655.004 216.347ZM651.875 216.865V216.329C651.875 215.696 651.819 215.14 651.708 214.659C651.603 214.173 651.444 213.766 651.233 213.438C651.022 213.109 650.762 212.863 650.451 212.699C650.146 212.529 649.798 212.444 649.405 212.444C648.995 212.444 648.638 212.529 648.333 212.699C648.028 212.863 647.773 213.109 647.568 213.438C647.363 213.766 647.208 214.173 647.103 214.659C647.003 215.14 646.953 215.696 646.953 216.329V216.865C646.953 217.492 647.003 218.049 647.103 218.535C647.208 219.016 647.363 219.423 647.568 219.757C647.779 220.091 648.037 220.343 648.342 220.513C648.652 220.683 649.013 220.768 649.423 220.768C649.815 220.768 650.164 220.683 650.469 220.513C650.773 220.343 651.028 220.091 651.233 219.757C651.444 219.423 651.603 219.016 651.708 218.535C651.819 218.049 651.875 217.492 651.875 216.865ZM661.824 217.56H658.528L658.511 215.538H661.183C661.663 215.538 662.047 215.485 662.334 215.38C662.621 215.269 662.829 215.107 662.958 214.896C663.093 214.686 663.16 214.422 663.16 214.105C663.16 213.742 663.093 213.449 662.958 213.227C662.823 213.004 662.609 212.843 662.316 212.743C662.029 212.638 661.657 212.585 661.2 212.585H659.688V223H656.604V210.203H661.2C661.991 210.203 662.697 210.276 663.318 210.423C663.939 210.563 664.467 210.78 664.9 211.073C665.34 211.366 665.674 211.735 665.902 212.181C666.131 212.62 666.245 213.139 666.245 213.736C666.245 214.258 666.134 214.747 665.911 215.204C665.688 215.661 665.316 216.033 664.795 216.32C664.279 216.602 663.573 216.748 662.677 216.76L661.824 217.56ZM661.701 223H657.781L658.836 220.627H661.701C662.123 220.627 662.46 220.562 662.712 220.434C662.97 220.299 663.154 220.123 663.266 219.906C663.383 219.684 663.441 219.438 663.441 219.168C663.441 218.84 663.386 218.556 663.274 218.315C663.169 218.075 662.999 217.891 662.765 217.762C662.53 217.627 662.217 217.56 661.824 217.56H659.231L659.249 215.538H662.352L663.072 216.347C663.928 216.312 664.604 216.432 665.103 216.707C665.606 216.982 665.967 217.346 666.184 217.797C666.4 218.248 666.509 218.72 666.509 219.212C666.509 220.05 666.327 220.75 665.964 221.312C665.606 221.875 665.07 222.297 664.355 222.578C663.641 222.859 662.756 223 661.701 223ZM672.38 223H669.541L669.559 220.627H672.38C672.966 220.627 673.461 220.486 673.865 220.205C674.275 219.924 674.586 219.505 674.797 218.948C675.014 218.386 675.122 217.694 675.122 216.874V216.32C675.122 215.705 675.061 215.166 674.938 214.703C674.82 214.234 674.645 213.845 674.41 213.534C674.176 213.218 673.883 212.98 673.531 212.822C673.186 212.664 672.787 212.585 672.336 212.585H669.488V210.203H672.336C673.203 210.203 673.997 210.353 674.718 210.651C675.444 210.944 676.071 211.366 676.599 211.917C677.132 212.462 677.542 213.109 677.829 213.859C678.122 214.604 678.269 215.43 678.269 216.338V216.874C678.269 217.776 678.122 218.603 677.829 219.353C677.542 220.103 677.135 220.75 676.607 221.295C676.08 221.84 675.456 222.262 674.735 222.561C674.021 222.854 673.235 223 672.38 223ZM671.308 210.203V223H668.223V210.203H671.308ZM683.155 210.203V223H680.079V210.203H683.155ZM688.604 210.203V223H685.528V210.203H688.604Z" fill="white"/>
<path d="M1066 0H1348C1356.28 0 1363 6.71573 1363 15V282C1363 290.284 1356.28 297 1348 297H1066V0Z" fill="white"/>
</svg>
